<svg width="105" height="46" viewBox="0 0 105 46" fill="none" xmlns="http://www.w3.org/2000/svg">
<mask id="path-1-inside-1" fill="white">
<path fill-rule="evenodd" clip-rule="evenodd" d="M20 0C8.95431 0 0 8.95431 0 20C0 31.0457 8.9543 40 20 40H44.8835C45.3597 40 45.7846 40.2698 46.1214 40.6066L50.364 44.8492C51.5356 46.0208 53.4351 46.0208 54.6067 44.8492L58.8493 40.6066C59.1861 40.2698 59.611 40 60.0873 40H85C96.0457 40 105 31.0457 105 20C105 8.95431 96.0457 0 85 0H20Z"/>
</mask>
<path d="M50.364 44.8492L51.7782 43.435V43.435L50.364 44.8492ZM54.6067 44.8492L53.1925 43.435V43.435L54.6067 44.8492ZM2 20C2 10.0589 10.0589 2 20 2V-2C7.84974 -2 -2 7.84974 -2 20H2ZM20 38C10.0589 38 2 29.9411 2 20H-2C-2 32.1503 7.84973 42 20 42V38ZM44.8835 38H20V42H44.8835V38ZM51.7782 43.435L47.5356 39.1924L44.7072 42.0208L48.9498 46.2635L51.7782 43.435ZM53.1925 43.435C52.8019 43.8256 52.1688 43.8256 51.7782 43.435L48.9498 46.2635C50.9024 48.2161 54.0683 48.2161 56.0209 46.2635L53.1925 43.435ZM57.4351 39.1924L53.1925 43.435L56.0209 46.2635L60.2635 42.0208L57.4351 39.1924ZM85 38H60.0873V42H85V38ZM103 20C103 29.9411 94.9411 38 85 38V42C97.1503 42 107 32.1503 107 20H103ZM85 2C94.9411 2 103 10.0589 103 20H107C107 7.84974 97.1503 -2 85 -2V2ZM20 2H85V-2H20V2ZM60.2635 42.0208C60.2941 41.9902 60.3187 41.9692 60.3358 41.9562C60.353 41.943 60.3576 41.9415 60.3485 41.9463C60.3292 41.9565 60.236 42 60.0873 42V38C58.8441 38 57.9377 38.6898 57.4351 39.1924L60.2635 42.0208ZM44.8835 42C44.7347 42 44.6415 41.9565 44.6222 41.9463C44.6131 41.9415 44.6177 41.9429 44.6349 41.9562C44.652 41.9692 44.6766 41.9902 44.7072 42.0208L47.5356 39.1924C47.033 38.6898 46.1267 38 44.8835 38V42Z" fill="url(#paint0_linear)" mask="url(#path-1-inside-1)"/>
<defs>
<linearGradient id="paint0_linear" x1="3.91155e-07" y1="22.864" x2="105" y2="22.864" gradientUnits="userSpaceOnUse">
<stop stop-color="#FF659C"/>
<stop offset="1" stop-color="#D765FF"/>
</linearGradient>
</defs>
</svg>
