<svg width="149" height="40" viewBox="0 0 149 40" fill="none" xmlns="http://www.w3.org/2000/svg">
<rect x="1" y="1" width="147" height="38" rx="19" stroke="url(#paint0_linear)" stroke-width="2"/>
<path d="M33.04 15.344C33.3173 15.4827 33.4773 15.7013 33.52 16C33.5733 16.2987 33.4987 16.5707 33.296 16.816C33.1573 17.008 32.976 17.1147 32.752 17.136C32.5387 17.1573 32.32 17.1147 32.096 17.008C31.84 16.8907 31.568 16.8 31.28 16.736C31.0027 16.672 30.7093 16.64 30.4 16.64C29.824 16.64 29.3067 16.7307 28.848 16.912C28.4 17.0933 28.016 17.3547 27.696 17.696C27.376 18.0267 27.1307 18.4213 26.96 18.88C26.8 19.3387 26.72 19.8453 26.72 20.4C26.72 21.0507 26.8107 21.616 26.992 22.096C27.184 22.576 27.4453 22.976 27.776 23.296C28.1067 23.616 28.496 23.856 28.944 24.016C29.392 24.1653 29.8773 24.24 30.4 24.24C30.688 24.24 30.976 24.2133 31.264 24.16C31.552 24.1067 31.8293 24.0107 32.096 23.872C32.32 23.7653 32.5387 23.728 32.752 23.76C32.976 23.792 33.1627 23.904 33.312 24.096C33.5253 24.3627 33.6 24.64 33.536 24.928C33.4827 25.2053 33.3227 25.408 33.056 25.536C32.7787 25.6747 32.4907 25.792 32.192 25.888C31.904 25.9733 31.6107 26.0373 31.312 26.08C31.0133 26.1333 30.7093 26.16 30.4 26.16C29.632 26.16 28.9013 26.0373 28.208 25.792C27.5253 25.5467 26.912 25.184 26.368 24.704C25.8347 24.224 25.4133 23.6267 25.104 22.912C24.7947 22.1867 24.64 21.3493 24.64 20.4C24.64 19.5787 24.7787 18.8213 25.056 18.128C25.344 17.4347 25.744 16.8373 26.256 16.336C26.7787 15.824 27.392 15.4293 28.096 15.152C28.8 14.864 29.568 14.72 30.4 14.72C30.8693 14.72 31.328 14.7733 31.776 14.88C32.224 14.9867 32.6453 15.1413 33.04 15.344ZM36.0312 26C35.7539 26 35.5246 25.9093 35.3433 25.728C35.1619 25.536 35.0713 25.3013 35.0713 25.024V18.416C35.0713 18.1387 35.1619 17.9093 35.3433 17.728C35.5246 17.536 35.7539 17.44 36.0312 17.44C36.3086 17.44 36.5379 17.536 36.7193 17.728C36.9006 17.9093 36.9913 18.1387 36.9913 18.416V19.92L36.8793 18.848C36.9966 18.592 37.1459 18.368 37.3273 18.176C37.5193 17.9733 37.7326 17.808 37.9673 17.68C38.2019 17.5413 38.4526 17.44 38.7193 17.376C38.9859 17.312 39.2526 17.28 39.5193 17.28C39.8393 17.28 40.1059 17.3707 40.3193 17.552C40.5433 17.7333 40.6553 17.9467 40.6553 18.192C40.6553 18.544 40.5646 18.8 40.3833 18.96C40.2019 19.1093 40.0046 19.184 39.7913 19.184C39.5886 19.184 39.4019 19.1467 39.2313 19.072C39.0713 18.9973 38.8846 18.96 38.6713 18.96C38.4793 18.96 38.2819 19.008 38.0793 19.104C37.8873 19.1893 37.7059 19.328 37.5353 19.52C37.3753 19.712 37.2419 19.952 37.1353 20.24C37.0393 20.5173 36.9913 20.848 36.9913 21.232V25.024C36.9913 25.3013 36.9006 25.536 36.7193 25.728C36.5379 25.9093 36.3086 26 36.0312 26ZM45.6014 26.16C44.6947 26.16 43.9054 25.9733 43.2334 25.6C42.572 25.216 42.06 24.6987 41.6974 24.048C41.3454 23.3973 41.1694 22.6613 41.1694 21.84C41.1694 20.88 41.3614 20.064 41.7454 19.392C42.14 18.7093 42.652 18.1867 43.2814 17.824C43.9107 17.4613 44.5774 17.28 45.2814 17.28C45.8254 17.28 46.3374 17.392 46.8174 17.616C47.308 17.84 47.74 18.1493 48.1134 18.544C48.4867 18.928 48.78 19.376 48.9934 19.888C49.2174 20.4 49.3294 20.944 49.3294 21.52C49.3187 21.776 49.2174 21.984 49.0254 22.144C48.8334 22.304 48.6094 22.384 48.3534 22.384H42.2414L41.7614 20.784H47.6334L47.2814 21.104V20.672C47.26 20.3627 47.148 20.0853 46.9454 19.84C46.7534 19.5947 46.508 19.4027 46.2094 19.264C45.9214 19.1147 45.612 19.04 45.2814 19.04C44.9614 19.04 44.6627 19.0827 44.3854 19.168C44.108 19.2533 43.868 19.3973 43.6654 19.6C43.4627 19.8027 43.3027 20.0747 43.1854 20.416C43.068 20.7573 43.0094 21.1893 43.0094 21.712C43.0094 22.288 43.1267 22.7787 43.3614 23.184C43.6067 23.5787 43.916 23.8827 44.2894 24.096C44.6734 24.2987 45.0787 24.4 45.5054 24.4C45.9 24.4 46.2147 24.368 46.4494 24.304C46.684 24.24 46.8707 24.1653 47.0094 24.08C47.1587 23.984 47.292 23.904 47.4094 23.84C47.6014 23.744 47.7827 23.696 47.9534 23.696C48.188 23.696 48.38 23.776 48.5294 23.936C48.6894 24.096 48.7694 24.2827 48.7694 24.496C48.7694 24.784 48.62 25.0453 48.3214 25.28C48.044 25.5147 47.6547 25.7227 47.1534 25.904C46.652 26.0747 46.1347 26.16 45.6014 26.16ZM57.9211 17.28C58.1985 17.28 58.4278 17.3707 58.6091 17.552C58.7905 17.7333 58.8811 17.968 58.8811 18.256V25.024C58.8811 25.3013 58.7905 25.536 58.6091 25.728C58.4278 25.9093 58.1985 26 57.9211 26C57.6438 26 57.4145 25.9093 57.2331 25.728C57.0518 25.536 56.9611 25.3013 56.9611 25.024V24.24L57.3131 24.384C57.3131 24.5227 57.2385 24.6933 57.0891 24.896C56.9398 25.088 56.7371 25.28 56.4811 25.472C56.2251 25.664 55.9211 25.8293 55.5691 25.968C55.2278 26.096 54.8545 26.16 54.4491 26.16C53.7131 26.16 53.0465 25.9733 52.4491 25.6C51.8518 25.216 51.3771 24.6933 51.0251 24.032C50.6838 23.36 50.5131 22.592 50.5131 21.728C50.5131 20.8533 50.6838 20.0853 51.0251 19.424C51.3771 18.752 51.8465 18.2293 52.4331 17.856C53.0198 17.472 53.6705 17.28 54.3851 17.28C54.8438 17.28 55.2651 17.3493 55.6491 17.488C56.0331 17.6267 56.3638 17.8027 56.6411 18.016C56.9291 18.2293 57.1478 18.448 57.2971 18.672C57.4571 18.8853 57.5371 19.0667 57.5371 19.216L56.9611 19.424V18.256C56.9611 17.9787 57.0518 17.7493 57.2331 17.568C57.4145 17.376 57.6438 17.28 57.9211 17.28ZM54.6891 24.4C55.1585 24.4 55.5691 24.2827 55.9211 24.048C56.2731 23.8133 56.5451 23.4933 56.7371 23.088C56.9398 22.6827 57.0411 22.2293 57.0411 21.728C57.0411 21.216 56.9398 20.7573 56.7371 20.352C56.5451 19.9467 56.2731 19.6267 55.9211 19.392C55.5691 19.1573 55.1585 19.04 54.6891 19.04C54.2305 19.04 53.8251 19.1573 53.4731 19.392C53.1211 19.6267 52.8438 19.9467 52.6411 20.352C52.4491 20.7573 52.3531 21.216 52.3531 21.728C52.3531 22.2293 52.4491 22.6827 52.6411 23.088C52.8438 23.4933 53.1211 23.8133 53.4731 24.048C53.8251 24.2827 54.2305 24.4 54.6891 24.4ZM61.0579 17.6H64.8499C65.1059 17.6 65.3192 17.6853 65.4899 17.856C65.6605 18.0267 65.7459 18.24 65.7459 18.496C65.7459 18.7413 65.6605 18.9493 65.4899 19.12C65.3192 19.28 65.1059 19.36 64.8499 19.36H61.0579C60.8019 19.36 60.5885 19.2747 60.4179 19.104C60.2472 18.9333 60.1619 18.72 60.1619 18.464C60.1619 18.2187 60.2472 18.016 60.4179 17.856C60.5885 17.6853 60.8019 17.6 61.0579 17.6ZM62.7699 15.6C63.0472 15.6 63.2712 15.696 63.4419 15.888C63.6232 16.0693 63.7139 16.2987 63.7139 16.576V23.696C63.7139 23.8453 63.7405 23.968 63.7939 24.064C63.8579 24.16 63.9379 24.2293 64.0339 24.272C64.1405 24.3147 64.2525 24.336 64.3699 24.336C64.4979 24.336 64.6152 24.3147 64.7219 24.272C64.8285 24.2187 64.9512 24.192 65.0899 24.192C65.2392 24.192 65.3725 24.2613 65.4899 24.4C65.6179 24.5387 65.6819 24.7307 65.6819 24.976C65.6819 25.2747 65.5165 25.52 65.1859 25.712C64.8659 25.904 64.5192 26 64.1459 26C63.9219 26 63.6712 25.984 63.3939 25.952C63.1272 25.9093 62.8712 25.8187 62.6259 25.68C62.3912 25.5307 62.1939 25.3067 62.0339 25.008C61.8739 24.7093 61.7939 24.2987 61.7939 23.776V16.576C61.7939 16.2987 61.8845 16.0693 62.0659 15.888C62.2579 15.696 62.4925 15.6 62.7699 15.6ZM71.3826 26.16C70.476 26.16 69.6866 25.9733 69.0146 25.6C68.3533 25.216 67.8413 24.6987 67.4786 24.048C67.1266 23.3973 66.9506 22.6613 66.9506 21.84C66.9506 20.88 67.1426 20.064 67.5266 19.392C67.9213 18.7093 68.4333 18.1867 69.0626 17.824C69.692 17.4613 70.3586 17.28 71.0626 17.28C71.6066 17.28 72.1186 17.392 72.5986 17.616C73.0893 17.84 73.5213 18.1493 73.8946 18.544C74.268 18.928 74.5613 19.376 74.7746 19.888C74.9986 20.4 75.1106 20.944 75.1106 21.52C75.1 21.776 74.9986 21.984 74.8066 22.144C74.6146 22.304 74.3906 22.384 74.1346 22.384H68.0226L67.5426 20.784H73.4146L73.0626 21.104V20.672C73.0413 20.3627 72.9293 20.0853 72.7266 19.84C72.5346 19.5947 72.2893 19.4027 71.9906 19.264C71.7026 19.1147 71.3933 19.04 71.0626 19.04C70.7426 19.04 70.444 19.0827 70.1666 19.168C69.8893 19.2533 69.6493 19.3973 69.4466 19.6C69.244 19.8027 69.084 20.0747 68.9666 20.416C68.8493 20.7573 68.7906 21.1893 68.7906 21.712C68.7906 22.288 68.908 22.7787 69.1426 23.184C69.388 23.5787 69.6973 23.8827 70.0706 24.096C70.4546 24.2987 70.86 24.4 71.2866 24.4C71.6813 24.4 71.996 24.368 72.2306 24.304C72.4653 24.24 72.652 24.1653 72.7906 24.08C72.94 23.984 73.0733 23.904 73.1906 23.84C73.3826 23.744 73.564 23.696 73.7346 23.696C73.9693 23.696 74.1613 23.776 74.3106 23.936C74.4706 24.096 74.5506 24.2827 74.5506 24.496C74.5506 24.784 74.4013 25.0453 74.1026 25.28C73.8253 25.5147 73.436 25.7227 72.9346 25.904C72.4333 26.0747 71.916 26.16 71.3826 26.16ZM88.1243 17.28C88.4016 17.28 88.6309 17.3707 88.8123 17.552C88.9936 17.7333 89.0843 17.968 89.0843 18.256V25.024C89.0843 25.3013 88.9936 25.536 88.8123 25.728C88.6309 25.9093 88.4016 26 88.1243 26C87.8469 26 87.6176 25.9093 87.4363 25.728C87.2549 25.536 87.1643 25.3013 87.1643 25.024V24.24L87.5163 24.384C87.5163 24.5227 87.4416 24.6933 87.2923 24.896C87.1429 25.088 86.9403 25.28 86.6843 25.472C86.4283 25.664 86.1243 25.8293 85.7723 25.968C85.4309 26.096 85.0576 26.16 84.6523 26.16C83.9163 26.16 83.2496 25.9733 82.6523 25.6C82.0549 25.216 81.5803 24.6933 81.2283 24.032C80.8869 23.36 80.7163 22.592 80.7163 21.728C80.7163 20.8533 80.8869 20.0853 81.2283 19.424C81.5803 18.752 82.0496 18.2293 82.6363 17.856C83.2229 17.472 83.8736 17.28 84.5883 17.28C85.0469 17.28 85.4683 17.3493 85.8523 17.488C86.2363 17.6267 86.5669 17.8027 86.8443 18.016C87.1323 18.2293 87.3509 18.448 87.5003 18.672C87.6603 18.8853 87.7403 19.0667 87.7403 19.216L87.1643 19.424V18.256C87.1643 17.9787 87.2549 17.7493 87.4363 17.568C87.6176 17.376 87.8469 17.28 88.1243 17.28ZM84.8923 24.4C85.3616 24.4 85.7723 24.2827 86.1243 24.048C86.4763 23.8133 86.7483 23.4933 86.9403 23.088C87.1429 22.6827 87.2443 22.2293 87.2443 21.728C87.2443 21.216 87.1429 20.7573 86.9403 20.352C86.7483 19.9467 86.4763 19.6267 86.1243 19.392C85.7723 19.1573 85.3616 19.04 84.8923 19.04C84.4336 19.04 84.0283 19.1573 83.6763 19.392C83.3243 19.6267 83.0469 19.9467 82.8443 20.352C82.6523 20.7573 82.5563 21.216 82.5563 21.728C82.5563 22.2293 82.6523 22.6827 82.8443 23.088C83.0469 23.4933 83.3243 23.8133 83.6763 24.048C84.0283 24.2827 84.4336 24.4 84.8923 24.4ZM100.081 17.28C100.828 17.28 101.495 17.472 102.081 17.856C102.679 18.2293 103.148 18.7467 103.489 19.408C103.841 20.0693 104.017 20.8373 104.017 21.712C104.017 22.5867 103.841 23.36 103.489 24.032C103.148 24.6933 102.684 25.216 102.097 25.6C101.521 25.9733 100.871 26.16 100.145 26.16C99.7187 26.16 99.3187 26.0907 98.9454 25.952C98.572 25.8133 98.2414 25.6373 97.9534 25.424C97.676 25.2107 97.4574 24.9973 97.2974 24.784C97.148 24.56 97.0734 24.3733 97.0734 24.224L97.5694 24.016V28.224C97.5694 28.5013 97.4787 28.7307 97.2974 28.912C97.116 29.104 96.8867 29.2 96.6094 29.2C96.332 29.2 96.1027 29.1093 95.9214 28.928C95.74 28.7467 95.6494 28.512 95.6494 28.224V18.416C95.6494 18.1387 95.74 17.9093 95.9214 17.728C96.1027 17.536 96.332 17.44 96.6094 17.44C96.8867 17.44 97.116 17.536 97.2974 17.728C97.4787 17.9093 97.5694 18.1387 97.5694 18.416V19.2L97.2974 19.056C97.2974 18.9173 97.372 18.752 97.5214 18.56C97.6707 18.3573 97.8734 18.16 98.1294 17.968C98.3854 17.7653 98.6787 17.6 99.0094 17.472C99.3507 17.344 99.708 17.28 100.081 17.28ZM99.8414 19.04C99.372 19.04 98.9614 19.1573 98.6094 19.392C98.2574 19.6267 97.98 19.9467 97.7774 20.352C97.5854 20.7467 97.4894 21.2 97.4894 21.712C97.4894 22.2133 97.5854 22.672 97.7774 23.088C97.98 23.4933 98.2574 23.8133 98.6094 24.048C98.9614 24.2827 99.372 24.4 99.8414 24.4C100.311 24.4 100.716 24.2827 101.057 24.048C101.409 23.8133 101.681 23.4933 101.873 23.088C102.076 22.672 102.177 22.2133 102.177 21.712C102.177 21.2 102.076 20.7467 101.873 20.352C101.681 19.9467 101.409 19.6267 101.057 19.392C100.716 19.1573 100.311 19.04 99.8414 19.04ZM112.546 17.28C112.823 17.28 113.053 17.3707 113.234 17.552C113.415 17.7333 113.506 17.968 113.506 18.256V25.024C113.506 25.3013 113.415 25.536 113.234 25.728C113.053 25.9093 112.823 26 112.546 26C112.269 26 112.039 25.9093 111.858 25.728C111.677 25.536 111.586 25.3013 111.586 25.024V24.24L111.938 24.384C111.938 24.5227 111.863 24.6933 111.714 24.896C111.565 25.088 111.362 25.28 111.106 25.472C110.85 25.664 110.546 25.8293 110.194 25.968C109.853 26.096 109.479 26.16 109.074 26.16C108.338 26.16 107.671 25.9733 107.074 25.6C106.477 25.216 106.002 24.6933 105.65 24.032C105.309 23.36 105.138 22.592 105.138 21.728C105.138 20.8533 105.309 20.0853 105.65 19.424C106.002 18.752 106.471 18.2293 107.058 17.856C107.645 17.472 108.295 17.28 109.01 17.28C109.469 17.28 109.89 17.3493 110.274 17.488C110.658 17.6267 110.989 17.8027 111.266 18.016C111.554 18.2293 111.773 18.448 111.922 18.672C112.082 18.8853 112.162 19.0667 112.162 19.216L111.586 19.424V18.256C111.586 17.9787 111.677 17.7493 111.858 17.568C112.039 17.376 112.269 17.28 112.546 17.28ZM109.314 24.4C109.783 24.4 110.194 24.2827 110.546 24.048C110.898 23.8133 111.17 23.4933 111.362 23.088C111.565 22.6827 111.666 22.2293 111.666 21.728C111.666 21.216 111.565 20.7573 111.362 20.352C111.17 19.9467 110.898 19.6267 110.546 19.392C110.194 19.1573 109.783 19.04 109.314 19.04C108.855 19.04 108.45 19.1573 108.098 19.392C107.746 19.6267 107.469 19.9467 107.266 20.352C107.074 20.7573 106.978 21.216 106.978 21.728C106.978 22.2293 107.074 22.6827 107.266 23.088C107.469 23.4933 107.746 23.8133 108.098 24.048C108.45 24.2827 108.855 24.4 109.314 24.4ZM117.395 25.024C117.395 25.3013 117.304 25.536 117.123 25.728C116.942 25.9093 116.712 26 116.435 26C116.158 26 115.928 25.9093 115.747 25.728C115.566 25.536 115.475 25.3013 115.475 25.024V18.416C115.475 18.1387 115.566 17.9093 115.747 17.728C115.928 17.536 116.158 17.44 116.435 17.44C116.712 17.44 116.942 17.536 117.123 17.728C117.304 17.9093 117.395 18.1387 117.395 18.416V25.024ZM116.419 16.4C116.056 16.4 115.8 16.3413 115.651 16.224C115.502 16.1067 115.427 15.8987 115.427 15.6V15.296C115.427 14.9867 115.507 14.7787 115.667 14.672C115.838 14.5547 116.094 14.496 116.435 14.496C116.808 14.496 117.07 14.5547 117.219 14.672C117.368 14.7893 117.443 14.9973 117.443 15.296V15.6C117.443 15.9093 117.363 16.1227 117.203 16.24C117.043 16.3467 116.782 16.4 116.419 16.4ZM120.328 26C120.051 26 119.821 25.9093 119.64 25.728C119.459 25.536 119.368 25.3013 119.368 25.024V18.416C119.368 18.1387 119.459 17.9093 119.64 17.728C119.821 17.536 120.051 17.44 120.328 17.44C120.605 17.44 120.835 17.536 121.016 17.728C121.197 17.9093 121.288 18.1387 121.288 18.416V19.92L121.176 18.848C121.293 18.592 121.443 18.368 121.624 18.176C121.816 17.9733 122.029 17.808 122.264 17.68C122.499 17.5413 122.749 17.44 123.016 17.376C123.283 17.312 123.549 17.28 123.816 17.28C124.136 17.28 124.403 17.3707 124.616 17.552C124.84 17.7333 124.952 17.9467 124.952 18.192C124.952 18.544 124.861 18.8 124.68 18.96C124.499 19.1093 124.301 19.184 124.088 19.184C123.885 19.184 123.699 19.1467 123.528 19.072C123.368 18.9973 123.181 18.96 122.968 18.96C122.776 18.96 122.579 19.008 122.376 19.104C122.184 19.1893 122.003 19.328 121.832 19.52C121.672 19.712 121.539 19.952 121.432 20.24C121.336 20.5173 121.288 20.848 121.288 21.232V25.024C121.288 25.3013 121.197 25.536 121.016 25.728C120.835 25.9093 120.605 26 120.328 26Z" fill="#FF3CB1"/>
<defs>
<linearGradient id="paint0_linear" x1="5.55068e-07" y1="20" x2="149" y2="20" gradientUnits="userSpaceOnUse">
<stop stop-color="#FF659C"/>
<stop offset="1" stop-color="#D765FF"/>
</linearGradient>
</defs>
</svg>
