<svg width="48" height="48" viewBox="0 0 48 48" fill="none" xmlns="http://www.w3.org/2000/svg">
<rect x="0.5" y="0.5" width="47" height="47" rx="23.5" fill="#1f79ff" stroke="#613B88"/>
<g clip-path="url(#clip0)">
<path d="M24 13C21.0836 13.0032 18.2875 14.1631 16.2253 16.2253C14.1631 18.2875 13.0032 21.0836 13 24C13 24.2431 13.0966 24.4763 13.2685 24.6482C13.4404 24.8201 13.6736 24.9167 13.9167 24.9167C14.1598 24.9167 14.3929 24.8201 14.5648 24.6482C14.7368 24.4763 14.8333 24.2431 14.8333 24C14.8286 21.9473 15.5115 19.9521 16.7731 18.3327C18.0346 16.7133 19.8021 15.563 21.7936 15.0654C23.7851 14.5677 25.8859 14.7513 27.7609 15.5869C29.6359 16.4225 31.1771 17.8619 32.1386 19.6756C33.1001 21.4892 33.4266 23.5726 33.0659 25.5934C32.7052 27.6143 31.6781 29.4561 30.1485 30.8251C28.619 32.1941 26.675 33.0115 24.6267 33.1468C22.5784 33.2821 20.5438 32.7276 18.8474 31.5717L20.502 29.5C20.5535 29.4351 20.5865 29.3575 20.5973 29.2753C20.6082 29.1932 20.5967 29.1096 20.5638 29.0335C20.531 28.9575 20.4782 28.8917 20.411 28.8433C20.3437 28.7948 20.2646 28.7655 20.1821 28.7584L14.0661 28.2378C13.9909 28.2313 13.9154 28.2435 13.8461 28.2733C13.7768 28.3031 13.7159 28.3495 13.6689 28.4084C13.6218 28.4674 13.59 28.537 13.5763 28.6112C13.5626 28.6853 13.5674 28.7617 13.5903 28.8336L15.4622 34.6792C15.4874 34.758 15.5336 34.8285 15.5957 34.8833C15.6579 34.938 15.7337 34.9748 15.8151 34.9899C15.8426 34.9953 15.8705 34.9981 15.8985 34.9982C15.9674 34.9981 16.0354 34.9825 16.0975 34.9525C16.1596 34.9225 16.214 34.8789 16.2569 34.8249L17.7034 33.0099C19.1192 34.0015 20.7486 34.6455 22.4597 34.8897C24.1708 35.1339 25.9154 34.9714 27.552 34.4154C29.1886 33.8595 30.6711 32.9257 31.8794 31.6897C33.0877 30.4538 33.9878 28.9505 34.5066 27.3018C35.0254 25.6531 35.1484 23.9053 34.8656 22.2001C34.5828 20.495 33.9021 18.8805 32.8788 17.4875C31.8555 16.0945 30.5183 14.9623 28.9757 14.1827C27.4331 13.403 25.7284 12.9978 24 13Z" fill="white"/>
<path d="M23.9997 16.6666C23.7566 16.6666 23.5234 16.7632 23.3515 16.9351C23.1796 17.107 23.083 17.3402 23.083 17.5833V24C23.083 24.2431 23.1796 24.4762 23.3515 24.6481C23.5234 24.82 23.7566 24.9166 23.9997 24.9166H30.4163C30.6595 24.9166 30.8926 24.82 31.0645 24.6481C31.2364 24.4762 31.333 24.2431 31.333 24C31.333 23.7568 31.2364 23.5237 31.0645 23.3518C30.8926 23.1799 30.6595 23.0833 30.4163 23.0833H24.9163V17.5833C24.9163 17.3402 24.8198 17.107 24.6479 16.9351C24.4759 16.7632 24.2428 16.6666 23.9997 16.6666Z" fill="white"/>
</g>
<defs>
<clipPath id="clip0">
<rect width="22" height="22" fill="white" transform="translate(13 13)"/>
</clipPath>
</defs>
</svg>
