<svg width="32" height="32" viewBox="0 0 32 32" fill="none" xmlns="http://www.w3.org/2000/svg">
<g opacity="0.2" clip-path="url(#clip0)">
<path d="M27.3137 4.68628C24.2917 1.66431 20.2737 0 16 0C11.7263 0 7.70825 1.66431 4.68628 4.68628C1.66431 7.70825 0 11.7263 0 16C0 20.2737 1.66431 24.2917 4.68628 27.3137C7.70825 30.3357 11.7263 32 16 32C20.2737 32 24.2917 30.3357 27.3137 27.3137C30.3357 24.2917 32 20.2737 32 16C32 11.7263 30.3357 7.70825 27.3137 4.68628ZM28.6909 22.2615L25.7524 20.5647C26.4041 19.178 26.7693 17.6309 26.7693 16C26.7693 14.3691 26.4041 12.822 25.7524 11.4353L28.6909 9.73877C29.6267 11.6274 30.1538 13.7532 30.1538 16C30.1538 18.2468 29.6267 20.3726 28.6909 22.2615ZM16 24.9231C11.0798 24.9231 7.0769 20.9202 7.0769 16C7.0769 11.0798 11.0798 7.0769 16 7.0769C20.9202 7.0769 24.9231 11.0798 24.9231 16C24.9231 20.9202 20.9202 24.9231 16 24.9231ZM27.7656 8.14111L24.8269 9.83789C24.1013 8.80176 23.1982 7.89868 22.1621 7.1731L23.8589 4.23438C25.4021 5.26855 26.7314 6.5979 27.7656 8.14111ZM22.2615 3.30908L20.5647 6.24756C19.178 5.59595 17.6309 5.23071 16 5.23071C14.3691 5.23071 12.822 5.59595 11.4353 6.24756L9.73877 3.30908C11.6274 2.37329 13.7532 1.84619 16 1.84619C18.2468 1.84619 20.3726 2.37329 22.2615 3.30908ZM8.14111 4.23438L9.83789 7.1731C8.80176 7.89868 7.89868 8.80176 7.1731 9.83789L4.23438 8.14111C5.26855 6.5979 6.5979 5.26855 8.14111 4.23438ZM3.30908 9.73853L6.24756 11.4353C5.59595 12.822 5.23071 14.3691 5.23071 16C5.23071 17.6309 5.59595 19.178 6.24756 20.5647L3.30908 22.2612C2.37329 20.3726 1.84619 18.2468 1.84619 16C1.84619 13.7532 2.37329 11.6274 3.30908 9.73853ZM4.23438 23.8589L7.1731 22.1621C7.89868 23.1982 8.80176 24.1013 9.83789 24.8269L8.14111 27.7656C6.5979 26.7314 5.26855 25.4021 4.23438 23.8589ZM9.73853 28.6909L11.4353 25.7524C12.822 26.4041 14.3691 26.7693 16 26.7693C17.6309 26.7693 19.178 26.4041 20.5647 25.7524L22.2612 28.6909C20.3726 29.6267 18.2468 30.1538 16 30.1538C13.7532 30.1538 11.6274 29.6267 9.73853 28.6909ZM23.8589 27.7656L22.1621 24.8269C23.1982 24.1013 24.1013 23.1982 24.8269 22.1621L27.7656 23.8589C26.7314 25.4021 25.4021 26.7314 23.8589 27.7656Z" fill="#FF3CB1"/>
<path d="M15.3843 14.4614H18.4612C18.9712 14.4614 19.3843 14.0483 19.3843 13.5386C19.3843 13.0286 18.9712 12.6155 18.4612 12.6155H16.9229V11.0764C16.9229 10.5667 16.5095 10.1533 15.9998 10.1533C15.49 10.1533 15.0767 10.5667 15.0767 11.0764V12.6328C13.6941 12.7864 12.6152 13.9617 12.6152 15.3845V17.2307C12.6152 18.4185 13.5813 19.3845 14.769 19.3845H15.0767V20.9233C15.0767 21.4331 15.49 21.8464 15.9998 21.8464C16.5095 21.8464 16.9229 21.4331 16.9229 20.9233V19.3845H18.4612C18.9712 19.3845 19.3843 18.9714 19.3843 18.4614C19.3843 17.9517 18.9712 17.5386 18.4612 17.5386H16.0044C16.0029 17.5386 16.0015 17.5383 15.9998 17.5383C15.998 17.5383 15.9966 17.5386 15.9951 17.5386H14.769C14.5994 17.5386 14.4612 17.4004 14.4612 17.2307V15.3845C14.4612 14.8757 14.8755 14.4614 15.3843 14.4614Z" fill="#FF3CB1"/>
</g>
<defs>
<clipPath id="clip0">
<rect width="32" height="32" fill="white"/>
</clipPath>
</defs>
</svg>
