<svg width="174" height="32" viewBox="0 0 174 32" fill="none" xmlns="http://www.w3.org/2000/svg">
<path d="M31.9627 22.7742C31.6962 25.5686 30.1057 27.4803 27.7845 28.8784L27.7809 28.8801C15.6468 33.9269 6.30175 29.9851 3.94872 28.7972H3.94695C3.3256 28.4388 2.76073 28.054 2.23292 27.6092C-0.882687 24.9772 -0.716757 20.2094 2.59832 17.8422C2.8684 17.6498 2.94607 17.4592 2.93372 17.1591C2.85781 15.1962 3.22674 13.3109 4.1323 11.5775C6.2029 7.61631 9.4562 5.19796 13.8534 4.34006C14.0422 4.30299 14.134 4.21473 14.2205 4.04527C14.7007 3.10794 15.2938 2.24651 16.0493 1.50865C16.7907 0.783147 17.3679 0.832573 17.9928 1.66399C18.5312 2.38067 18.8842 3.1962 19.209 4.02409C19.2885 4.22532 19.3856 4.32064 19.6168 4.35948C22.4058 4.84138 24.8666 5.98171 26.833 8.06114C28.7642 10.1017 29.8939 12.5113 30.104 15.3338C30.1658 16.16 30.2575 16.9843 30.3229 17.8087C30.337 17.9887 30.4482 18.0964 30.5541 18.2094C31.7633 19.5033 32.1269 21.069 31.9627 22.7742Z" fill="#980230"/>
<path d="M27.3115 29.1627C27.3398 29.1891 27.3662 29.2174 27.3945 29.2439L27.3115 29.1627Z" fill="#E1A0B0"/>
<path d="M26.7924 29.5139C26.7624 29.5069 26.743 29.4875 26.7324 29.4592L26.7924 29.5139Z" fill="#E1A0B0"/>
<path d="M15.2462 5.21904C14.8579 5.75566 14.5419 6.26052 14.2983 6.80421C14.1942 7.03722 14.0971 7.27552 14.0282 7.52089C13.8146 8.287 14.0847 8.78832 14.8438 9.00721C16.0318 9.3479 17.2286 9.33378 18.4148 9.00721C19.1315 8.8095 19.3451 8.40703 19.1403 7.67446C18.9338 6.93483 18.6284 6.23051 18.2912 5.54031C18.2453 5.44498 18.1553 5.36378 18.1906 5.21198C19.128 5.25434 20.0423 5.43439 20.9426 5.69212C24.3883 6.68064 26.8296 8.83951 28.3159 12.084C28.8596 13.272 29.0026 14.5606 29.1491 15.8439C29.2445 16.6771 29.2109 17.5244 29.4492 18.34C29.4916 18.4847 29.5428 18.6136 29.6487 18.7212C31.0467 20.137 31.218 21.8422 30.789 23.6727C30.3495 25.5491 29.1085 26.8236 27.5534 27.8333C25.7775 28.986 23.8023 29.6303 21.7281 29.9569C18.8702 30.407 15.9929 30.4159 13.1209 30.167C10.5649 29.9445 8.0547 29.4573 5.66459 28.4918C4.27183 27.9287 3.00616 27.1643 2.06 25.9534C0.261241 23.655 0.84906 20.1175 3.32214 18.5783C3.81111 18.2746 3.96821 17.8881 3.95232 17.3726C3.80404 12.6771 6.01057 9.30377 9.87642 6.88541C11.4369 5.90924 13.1456 5.32671 14.9991 5.21727C15.0591 5.21551 15.1191 5.21904 15.2462 5.21904Z" fill="#FEBFC8"/>
<path d="M16.6425 8.5642C16.1235 8.53949 15.5904 8.50242 15.0697 8.35943C14.6796 8.25175 14.579 8.10701 14.6937 7.72395C15.0273 6.61363 15.6699 5.68865 16.4801 4.87664C16.7219 4.63481 16.9179 4.66482 17.1173 4.94549C17.7599 5.84928 18.1676 6.86076 18.4977 7.91107C18.5789 8.16702 18.4607 8.26941 18.2453 8.33295C17.7263 8.48653 17.1968 8.55184 16.6425 8.5642Z" fill="white"/>
<path d="M14.8914 4.22015C15.428 3.30753 15.9576 2.51318 16.676 1.86181C16.9161 1.64469 17.1067 1.6694 17.3168 1.92359C17.864 2.59085 18.1941 3.36931 18.563 4.23604C17.3274 4.04539 16.1517 4.08246 14.8914 4.22015Z" fill="#F9FCFF"/>
<path d="M26.2893 17.6675C27.758 17.6074 28.9866 18.8819 28.9954 20.3665C29.0042 21.8333 27.758 23.1272 26.2293 23.0866C24.8507 23.0496 23.5391 21.8934 23.5586 20.2588C23.5709 19.0037 24.8578 17.5368 26.2893 17.6675Z" fill="#FE84AB"/>
<path d="M6.26293 23.2315C4.73953 23.2368 3.6239 21.9499 3.60625 20.596C3.58507 19.1344 4.72011 17.8104 6.33177 17.8157C7.97344 17.821 9.03258 19.0426 9.05906 20.5519C9.08377 21.9217 7.9399 23.3039 6.26293 23.2315Z" fill="#FE84AB"/>
<path d="M7.99108 17.8936C7.66804 17.5318 7.60979 17.0781 7.5992 16.6297C7.57272 15.5423 7.83574 14.5467 8.71659 13.8248C10.2259 12.5891 12.4818 13.0551 13.405 14.7762C13.5604 15.0657 13.7069 15.3588 13.7951 15.6765C13.8251 15.7824 13.8852 15.8795 13.7881 15.9801C13.6116 15.9589 13.5621 15.7771 13.4068 15.673C13.4792 16.1531 13.4968 16.6103 13.4262 17.0675C13.3521 17.5406 13.2691 18.0084 12.8543 18.3244C12.4995 18.6968 12.0793 18.9546 11.5745 19.0675C10.2153 19.2741 9.10847 18.2749 8.99902 16.8627C8.92312 15.8901 9.27969 15.0392 9.8428 14.2749C8.65657 14.8027 8.12877 15.763 8.07934 17.0393C8.06698 17.3252 8.15877 17.6236 7.99108 17.8936Z" fill="#980230"/>
<path d="M21.0909 19.0691C20.3019 19.0938 19.7105 18.7372 19.2604 18.1141C18.865 17.7575 18.8615 17.2597 18.8067 16.7902C18.7679 16.446 18.7908 16.0947 18.8208 15.7205C18.6567 15.7717 18.6126 15.98 18.436 15.9658C18.5084 14.7655 19.6911 13.4469 20.9091 13.2068C22.7802 12.8396 24.3389 13.957 24.6231 15.8423C24.7272 16.536 24.6584 17.1856 24.3354 17.8846C24.2736 17.4451 24.3795 17.0656 24.2489 16.7055C24.1465 16.6331 24.1482 16.5166 24.1218 16.4124C23.8129 15.2138 23.4475 14.7637 22.3566 14.2465C22.5454 14.4036 22.6619 14.6119 22.7749 14.8237C22.902 15.062 22.9956 15.3127 23.0856 15.5651C23.1721 15.807 23.218 16.0576 23.2462 16.3136C23.3733 17.4221 22.9391 18.2659 22.0159 18.8555C21.7476 19.0302 21.4457 19.205 21.0909 19.0691Z" fill="#980230"/>
<path d="M12.616 20.9773C14.0282 23.927 17.9434 23.7329 19.5886 21.2368C19.6469 22.0453 18.8543 23.2598 18.2047 23.6428C16.8331 24.4513 15.4439 24.3313 14.1041 23.6128C13.082 23.0656 12.623 22.1247 12.616 20.9773Z" fill="#980230"/>
<path d="M21.0908 19.0692C22.5719 18.8432 23.4809 17.4752 23.1155 15.9959C22.9408 15.2933 22.6884 14.6225 22.1129 14.1247C23.1879 14.2271 24.1659 15.4116 24.2488 16.7038C24.2453 17.0197 24.2118 17.3392 24.2471 17.6499C24.293 18.0718 24.0635 18.3313 23.7599 18.5131C23.029 18.9492 22.2082 19.1116 21.3715 19.1981C21.2515 19.214 21.1508 19.1822 21.0908 19.0692Z" fill="#FAF8FB"/>
<path d="M7.99116 17.8935C7.89937 16.785 8.01058 15.7294 8.80669 14.8591C9.15797 14.4743 9.59751 14.2272 10.1359 14.1107C9.46688 14.7956 9.11913 15.6287 9.08383 16.582C9.03087 17.9941 10.1624 19.1839 11.5728 19.0656C11.225 19.2086 10.8755 19.1186 10.5384 19.0497C9.80404 18.8979 9.05559 18.7849 8.42187 18.3313C8.24888 18.2077 8.12708 18.0471 7.99116 17.8935Z" fill="#F5FAF8"/>
<path d="M12.8542 18.3242C13.4456 17.4663 13.412 16.5025 13.3132 15.4964C13.5886 15.5776 13.6698 15.7964 13.788 15.98C13.9522 16.8256 13.6362 17.5281 13.1349 18.1724C13.0731 18.2483 12.9496 18.2748 12.8542 18.3242Z" fill="#FAF3F3"/>
<path d="M18.436 15.9659C18.6073 15.8229 18.6796 15.5776 18.9568 15.4787C18.8314 16.4037 18.8367 17.2863 19.2604 18.1142C19.218 18.2977 19.1615 18.2236 19.0839 18.1318C18.6743 17.6534 18.4872 17.0939 18.4555 16.4743C18.4466 16.3048 18.4431 16.1354 18.436 15.9659Z" fill="#F7F5F7"/>
<path d="M12.3918 16.2694C12.3918 16.7372 12.1006 17.0885 11.7069 17.0973C11.3415 17.1043 11.1032 16.8219 11.1121 16.3894C11.1209 15.934 11.4333 15.5527 11.7987 15.5492C12.1535 15.5457 12.3918 15.8334 12.3918 16.2694Z" fill="#F5F7F8"/>
<path d="M21.1614 16.3966C21.1702 16.7832 20.9107 17.0991 20.5806 17.1027C20.1958 17.108 19.8728 16.7496 19.8534 16.2942C19.8357 15.8899 20.0952 15.5545 20.4341 15.5457C20.8207 15.5387 21.1508 15.9252 21.1614 16.3966Z" fill="#F6F7F9"/>
<path d="M47.54 10C48.7933 10 49.8667 10.3133 50.76 10.94C51.6533 11.5667 52.3267 12.4133 52.78 13.48C53.2333 14.5333 53.46 15.7067 53.46 17C53.46 18.3067 53.2333 19.4933 52.78 20.56C52.3267 21.6133 51.6533 22.4533 50.76 23.08C49.8667 23.6933 48.7933 24 47.54 24H42.62C42.3533 24 42.1267 23.9067 41.94 23.72C41.7533 23.5333 41.66 23.3067 41.66 23.04V10.96C41.66 10.6933 41.7533 10.4667 41.94 10.28C42.1267 10.0933 42.3533 10 42.62 10H47.54ZM47.34 22.16C48.7 22.16 49.72 21.68 50.4 20.72C51.08 19.7467 51.42 18.5067 51.42 17C51.42 15.5067 51.0733 14.2733 50.38 13.3C49.7 12.3267 48.6867 11.84 47.34 11.84H43.64V22.16H47.34ZM57.5559 23.04C57.5559 23.3067 57.4626 23.5333 57.2759 23.72C57.1026 23.9067 56.8759 24 56.5959 24C56.3293 24 56.1026 23.9067 55.9159 23.72C55.7426 23.5333 55.6559 23.3067 55.6559 23.04V14.38C55.6559 14.1133 55.7426 13.8867 55.9159 13.7C56.1026 13.5133 56.3293 13.42 56.5959 13.42C56.8759 13.42 57.1026 13.5133 57.2759 13.7C57.4626 13.8867 57.5559 14.1133 57.5559 14.38V23.04ZM56.5959 12.1C56.2093 12.1 55.9293 12.0333 55.7559 11.9C55.5959 11.7533 55.5159 11.5267 55.5159 11.22V10.9C55.5159 10.58 55.6026 10.3533 55.7759 10.22C55.9626 10.0867 56.2426 10.02 56.6159 10.02C56.9893 10.02 57.2559 10.0933 57.4159 10.24C57.5893 10.3733 57.6759 10.5933 57.6759 10.9V11.22C57.6759 11.54 57.5893 11.7667 57.4159 11.9C57.2426 12.0333 56.9693 12.1 56.5959 12.1ZM65.6272 13.28C68.0272 13.28 69.2272 14.72 69.2272 17.6V23.04C69.2272 23.3067 69.1339 23.5333 68.9472 23.72C68.7739 23.9067 68.5472 24 68.2672 24C68.0005 24 67.7739 23.9067 67.5872 23.72C67.4139 23.5333 67.3272 23.3067 67.3272 23.04V17.62C67.3272 16.8333 67.1472 16.2067 66.7872 15.74C66.4272 15.2733 65.8405 15.04 65.0272 15.04C64.4939 15.04 64.0072 15.16 63.5672 15.4C63.1405 15.6267 62.8005 15.94 62.5472 16.34C62.3072 16.7267 62.1872 17.1533 62.1872 17.62V23.04C62.1872 23.3067 62.0939 23.5333 61.9072 23.72C61.7339 23.9067 61.5072 24 61.2272 24C60.9472 24 60.7205 23.9133 60.5472 23.74C60.3739 23.5533 60.2872 23.32 60.2872 23.04V14.48C60.2872 14.2133 60.3739 13.9867 60.5472 13.8C60.7339 13.6133 60.9605 13.52 61.2272 13.52C61.5072 13.52 61.7339 13.6133 61.9072 13.8C62.0939 13.9867 62.1872 14.2133 62.1872 14.48V15.18C62.5339 14.6467 63.0139 14.2 63.6272 13.84C64.2539 13.4667 64.9205 13.28 65.6272 13.28ZM81.9845 18.76C81.9845 19.8 81.7512 20.7333 81.2845 21.56C80.8179 22.3867 80.1779 23.0333 79.3645 23.5C78.5645 23.9667 77.6779 24.2 76.7045 24.2C75.7312 24.2 74.8379 23.9667 74.0245 23.5C73.2245 23.0333 72.5912 22.3867 72.1245 21.56C71.6579 20.7333 71.4245 19.8 71.4245 18.76C71.4245 17.72 71.6579 16.78 72.1245 15.94C72.5912 15.1 73.2245 14.4467 74.0245 13.98C74.8379 13.5133 75.7312 13.28 76.7045 13.28C77.6779 13.28 78.5645 13.5133 79.3645 13.98C80.1779 14.4467 80.8179 15.1 81.2845 15.94C81.7512 16.78 81.9845 17.72 81.9845 18.76ZM80.0845 18.76C80.0845 18.04 79.9312 17.4 79.6245 16.84C79.3312 16.2667 78.9245 15.8267 78.4045 15.52C77.8979 15.2 77.3312 15.04 76.7045 15.04C76.0779 15.04 75.5045 15.2 74.9845 15.52C74.4779 15.8267 74.0712 16.2667 73.7645 16.84C73.4712 17.4 73.3245 18.04 73.3245 18.76C73.3245 19.4667 73.4712 20.1 73.7645 20.66C74.0712 21.22 74.4779 21.66 74.9845 21.98C75.5045 22.2867 76.0779 22.44 76.7045 22.44C77.3312 22.44 77.8979 22.2867 78.4045 21.98C78.9245 21.66 79.3312 21.22 79.6245 20.66C79.9312 20.1 80.0845 19.4667 80.0845 18.76ZM92.3534 22.16C92.6334 22.16 92.8601 22.2533 93.0334 22.44C93.2201 22.6267 93.3134 22.8467 93.3134 23.1C93.3134 23.3667 93.2201 23.5867 93.0334 23.76C92.8601 23.92 92.6334 24 92.3534 24H85.3934C85.1268 24 84.9001 23.9067 84.7134 23.72C84.5268 23.5333 84.4334 23.3067 84.4334 23.04V10.96C84.4334 10.6933 84.5268 10.4667 84.7134 10.28C84.9001 10.0933 85.1268 10 85.3934 10H92.3534C92.6334 10 92.8601 10.0867 93.0334 10.26C93.2201 10.4333 93.3134 10.66 93.3134 10.94C93.3134 11.2067 93.2201 11.4267 93.0334 11.6C92.8601 11.76 92.6334 11.84 92.3534 11.84H86.4134V15.92H91.4534C91.7334 15.92 91.9601 16.0067 92.1334 16.18C92.3201 16.3533 92.4134 16.5733 92.4134 16.84C92.4134 17.12 92.3201 17.34 92.1334 17.5C91.9601 17.66 91.7334 17.74 91.4534 17.74H86.4134V22.16H92.3534ZM103.22 22.52C103.366 22.68 103.44 22.8667 103.44 23.08C103.44 23.3467 103.34 23.58 103.14 23.78C102.94 23.9667 102.72 24.06 102.48 24.06C102.173 24.06 101.913 23.92 101.7 23.64L99.0197 20.26L96.3797 23.64C96.2864 23.7733 96.173 23.8733 96.0397 23.94C95.9064 24.0067 95.7664 24.04 95.6197 24.04C95.393 24.04 95.1797 23.96 94.9797 23.8C94.793 23.6267 94.6997 23.4267 94.6997 23.2C94.6997 22.96 94.773 22.76 94.9197 22.6L97.9197 18.86L94.8397 14.98C94.7064 14.8067 94.6397 14.62 94.6397 14.42C94.6397 14.1533 94.733 13.9267 94.9197 13.74C95.1197 13.5533 95.3464 13.46 95.5997 13.46C95.9197 13.46 96.1797 13.5933 96.3797 13.86L99.1197 17.32L101.7 13.88C101.9 13.6 102.153 13.46 102.46 13.46C102.713 13.46 102.926 13.5467 103.1 13.72C103.273 13.88 103.36 14.0733 103.36 14.3C103.36 14.5533 103.286 14.76 103.14 14.92L100.18 18.66L103.22 22.52ZM109.789 13.28C110.842 13.28 111.715 13.4467 112.409 13.78C113.115 14.1133 113.469 14.54 113.469 15.06C113.469 15.2867 113.395 15.4933 113.249 15.68C113.102 15.8533 112.915 15.94 112.689 15.94C112.515 15.94 112.375 15.9133 112.269 15.86C112.175 15.8067 112.042 15.72 111.869 15.6C111.789 15.52 111.662 15.4267 111.489 15.32C111.329 15.24 111.102 15.1733 110.809 15.12C110.515 15.0667 110.249 15.04 110.009 15.04C109.315 15.04 108.702 15.2 108.169 15.52C107.635 15.84 107.222 16.2867 106.929 16.86C106.635 17.42 106.489 18.0467 106.489 18.74C106.489 19.4467 106.629 20.08 106.909 20.64C107.202 21.2 107.609 21.64 108.129 21.96C108.649 22.28 109.242 22.44 109.909 22.44C110.602 22.44 111.162 22.3333 111.589 22.12C111.682 22.0667 111.809 21.98 111.969 21.86C112.102 21.7533 112.215 21.6733 112.309 21.62C112.415 21.5667 112.542 21.54 112.689 21.54C112.955 21.54 113.162 21.6267 113.309 21.8C113.469 21.96 113.549 22.1733 113.549 22.44C113.549 22.72 113.369 23 113.009 23.28C112.662 23.5467 112.189 23.7667 111.589 23.94C111.002 24.1133 110.369 24.2 109.689 24.2C108.675 24.2 107.782 23.9667 107.009 23.5C106.235 23.02 105.635 22.3667 105.209 21.54C104.795 20.7 104.589 19.7667 104.589 18.74C104.589 17.7133 104.809 16.7867 105.249 15.96C105.689 15.12 106.302 14.4667 107.089 14C107.875 13.52 108.775 13.28 109.789 13.28ZM120.722 13.34C123.069 13.34 124.242 14.7933 124.242 17.7V23.04C124.242 23.3067 124.149 23.5333 123.962 23.72C123.789 23.9067 123.562 24 123.282 24C123.015 24 122.789 23.9067 122.602 23.72C122.429 23.5333 122.342 23.3067 122.342 23.04V17.7C122.342 15.9667 121.609 15.1 120.142 15.1C119.355 15.1 118.702 15.3533 118.182 15.86C117.662 16.3533 117.402 16.9667 117.402 17.7V23.04C117.402 23.3067 117.309 23.5333 117.122 23.72C116.949 23.9067 116.722 24 116.442 24C116.162 24 115.935 23.9133 115.762 23.74C115.589 23.5533 115.502 23.32 115.502 23.04V10.16C115.502 9.89333 115.589 9.66667 115.762 9.48C115.949 9.29333 116.175 9.2 116.442 9.2C116.722 9.2 116.949 9.29333 117.122 9.48C117.309 9.66667 117.402 9.89333 117.402 10.16V15.22C117.735 14.7 118.202 14.26 118.802 13.9C119.402 13.5267 120.042 13.34 120.722 13.34ZM135.584 13.38C135.864 13.38 136.091 13.4733 136.264 13.66C136.451 13.8333 136.544 14.0667 136.544 14.36V23.04C136.544 23.3067 136.451 23.5333 136.264 23.72C136.091 23.9067 135.864 24 135.584 24C135.304 24 135.077 23.9133 134.904 23.74C134.731 23.5533 134.644 23.32 134.644 23.04V22.52C134.297 22.9867 133.824 23.3867 133.224 23.72C132.624 24.04 131.977 24.2 131.284 24.2C130.377 24.2 129.551 23.9667 128.804 23.5C128.071 23.0333 127.491 22.3867 127.064 21.56C126.651 20.72 126.444 19.78 126.444 18.74C126.444 17.7 126.651 16.7667 127.064 15.94C127.491 15.1 128.071 14.4467 128.804 13.98C129.537 13.5133 130.344 13.28 131.224 13.28C131.931 13.28 132.584 13.4267 133.184 13.72C133.797 14.0133 134.284 14.3867 134.644 14.84V14.36C134.644 14.08 134.731 13.8467 134.904 13.66C135.077 13.4733 135.304 13.38 135.584 13.38ZM131.504 22.44C132.131 22.44 132.684 22.28 133.164 21.96C133.657 21.64 134.037 21.2 134.304 20.64C134.584 20.08 134.724 19.4467 134.724 18.74C134.724 18.0467 134.584 17.42 134.304 16.86C134.037 16.3 133.657 15.86 133.164 15.54C132.684 15.2067 132.131 15.04 131.504 15.04C130.877 15.04 130.317 15.2 129.824 15.52C129.344 15.84 128.964 16.28 128.684 16.84C128.417 17.4 128.284 18.0333 128.284 18.74C128.284 19.4467 128.417 20.08 128.684 20.64C128.964 21.2 129.344 21.64 129.824 21.96C130.317 22.28 130.877 22.44 131.504 22.44ZM144.709 13.28C147.109 13.28 148.309 14.72 148.309 17.6V23.04C148.309 23.3067 148.216 23.5333 148.029 23.72C147.856 23.9067 147.629 24 147.349 24C147.083 24 146.856 23.9067 146.669 23.72C146.496 23.5333 146.409 23.3067 146.409 23.04V17.62C146.409 16.8333 146.229 16.2067 145.869 15.74C145.509 15.2733 144.923 15.04 144.109 15.04C143.576 15.04 143.089 15.16 142.649 15.4C142.223 15.6267 141.883 15.94 141.629 16.34C141.389 16.7267 141.269 17.1533 141.269 17.62V23.04C141.269 23.3067 141.176 23.5333 140.989 23.72C140.816 23.9067 140.589 24 140.309 24C140.029 24 139.803 23.9133 139.629 23.74C139.456 23.5533 139.369 23.32 139.369 23.04V14.48C139.369 14.2133 139.456 13.9867 139.629 13.8C139.816 13.6133 140.043 13.52 140.309 13.52C140.589 13.52 140.816 13.6133 140.989 13.8C141.176 13.9867 141.269 14.2133 141.269 14.48V15.18C141.616 14.6467 142.096 14.2 142.709 13.84C143.336 13.4667 144.003 13.28 144.709 13.28ZM159.907 13.38C160.187 13.38 160.413 13.4733 160.587 13.66C160.773 13.8333 160.867 14.0667 160.867 14.36V23.16C160.867 24.24 160.633 25.14 160.167 25.86C159.713 26.5933 159.093 27.1333 158.307 27.48C157.52 27.8267 156.633 28 155.647 28C155.113 28 154.487 27.9067 153.767 27.72C153.06 27.5333 152.607 27.34 152.407 27.14C151.993 26.9267 151.787 26.66 151.787 26.34C151.787 26.26 151.813 26.1533 151.867 26.02C152.013 25.6867 152.26 25.52 152.607 25.52C152.78 25.52 152.967 25.56 153.167 25.64C154.233 26.0533 155.067 26.26 155.667 26.26C156.733 26.26 157.547 26 158.107 25.48C158.68 24.9733 158.967 24.2733 158.967 23.38V22.3C158.687 22.82 158.213 23.2667 157.547 23.64C156.893 24.0133 156.2 24.2 155.467 24.2C154.547 24.2 153.707 23.9667 152.947 23.5C152.187 23.0333 151.587 22.3867 151.147 21.56C150.72 20.72 150.507 19.78 150.507 18.74C150.507 17.7 150.72 16.7667 151.147 15.94C151.587 15.1 152.18 14.4467 152.927 13.98C153.687 13.5133 154.52 13.28 155.427 13.28C156.16 13.28 156.84 13.4467 157.467 13.78C158.107 14.1133 158.607 14.52 158.967 15V14.36C158.967 14.08 159.053 13.8467 159.227 13.66C159.4 13.4733 159.627 13.38 159.907 13.38ZM155.687 22.44C156.34 22.44 156.92 22.2867 157.427 21.98C157.933 21.66 158.327 21.22 158.607 20.66C158.9 20.0867 159.047 19.4467 159.047 18.74C159.047 18.0333 158.9 17.4 158.607 16.84C158.327 16.28 157.933 15.84 157.427 15.52C156.92 15.2 156.34 15.04 155.687 15.04C155.047 15.04 154.473 15.2 153.967 15.52C153.46 15.84 153.06 16.2867 152.767 16.86C152.487 17.42 152.347 18.0467 152.347 18.74C152.347 19.4333 152.487 20.0667 152.767 20.64C153.06 21.2 153.46 21.64 153.967 21.96C154.473 22.28 155.047 22.44 155.687 22.44ZM172.495 18.36C172.482 18.6 172.382 18.8067 172.195 18.98C172.008 19.14 171.788 19.22 171.535 19.22H164.495C164.588 20.1933 164.955 20.9733 165.595 21.56C166.248 22.1467 167.042 22.44 167.975 22.44C168.615 22.44 169.135 22.3467 169.535 22.16C169.935 21.9733 170.288 21.7333 170.595 21.44C170.795 21.32 170.988 21.26 171.175 21.26C171.402 21.26 171.588 21.34 171.735 21.5C171.895 21.66 171.975 21.8467 171.975 22.06C171.975 22.34 171.842 22.5933 171.575 22.82C171.188 23.2067 170.675 23.5333 170.035 23.8C169.395 24.0667 168.742 24.2 168.075 24.2C166.995 24.2 166.042 23.9733 165.215 23.52C164.402 23.0667 163.768 22.4333 163.315 21.62C162.875 20.8067 162.655 19.8867 162.655 18.86C162.655 17.74 162.882 16.76 163.335 15.92C163.802 15.0667 164.408 14.4133 165.155 13.96C165.915 13.5067 166.728 13.28 167.595 13.28C168.448 13.28 169.248 13.5 169.995 13.94C170.742 14.38 171.342 14.9867 171.795 15.76C172.248 16.5333 172.482 17.4 172.495 18.36ZM167.595 15.04C166.848 15.04 166.202 15.2533 165.655 15.68C165.108 16.0933 164.748 16.74 164.575 17.62H170.475V17.46C170.408 16.7533 170.088 16.1733 169.515 15.72C168.955 15.2667 168.315 15.04 167.595 15.04Z" fill="#FF3CB1"/>
</svg>
