<svg width="72" height="132" viewBox="0 0 72 132" fill="none" xmlns="http://www.w3.org/2000/svg">
<path opacity="0.1" d="M41.882 126.991C38.7065 132.767 33.3233 132.767 30.1479 126.991C20.1678 108.876 0.90332 65.2961 0.90332 50.9007C0.90332 31.5152 16.6295 15.7891 36.0149 15.7891C55.4004 15.7891 71.1265 31.5152 71.1265 50.9007C71.1265 65.2961 51.8923 108.876 41.882 126.991Z" fill="black"/>
<path d="M41.882 111.93C38.7065 117.707 33.3233 117.707 30.1479 111.93C20.1678 93.8151 0.90332 50.2356 0.90332 35.8401C0.90332 16.4546 16.6295 0.728516 36.0149 0.728516C55.4004 0.728516 71.1265 16.4546 71.1265 35.8401C71.1265 50.2356 51.8923 93.8151 41.882 111.93Z" fill="url(#paint0_linear)"/>
<path d="M57.2446 32.8461C57.2446 44.6104 47.688 54.1066 35.9841 54.1066C24.3105 54.1066 14.8144 44.5197 14.7539 32.8461C14.7539 21.1725 24.3105 11.6461 35.9841 11.6461C47.7485 11.6158 57.2446 21.1725 57.2446 32.8461Z" fill="#3063E4"/>
<path d="M50.5621 32.846C50.5621 40.9208 44.0297 47.4229 36.0155 47.4229C28.0012 47.4229 21.499 40.8603 21.4688 32.846C21.4688 24.862 28.0012 18.3296 36.0155 18.3296C44.06 18.3296 50.5621 24.862 50.5621 32.846Z" fill="#CFE6FF"/>
<path d="M42.487 25.3765C41.3377 32.3625 35.3497 37.6852 28.0613 37.6852C27.6681 37.6852 27.2447 37.5642 26.8516 37.5642C28.4847 41.1631 32.0533 43.6127 36.1965 43.6127C41.8519 43.6127 46.479 39.0461 46.479 33.3605C46.5092 30.0641 44.8761 27.2515 42.487 25.3765Z" fill="#75B8FF"/>
<defs>
<linearGradient id="paint0_linear" x1="0.90332" y1="58.4956" x2="71.1265" y2="58.4956" gradientUnits="userSpaceOnUse">
<stop stop-color="#3C50FF"/>
<stop offset="1" stop-color="#3CA1FF"/>
</linearGradient>
</defs>
</svg>
