<svg width="424" height="218" viewBox="0 0 424 218" fill="none" xmlns="http://www.w3.org/2000/svg">
<path opacity="0.2" d="M0.37837 217.492C1.01346 191.241 6.51761 165.475 16.4372 141.553C38.8166 87.5398 80.9445 47.7103 130.996 26.9942C185.009 4.61472 242.984 6.24782 293.005 26.9942V26.964C347.018 49.3434 386.848 91.4713 407.564 141.523C417.846 166.352 423.018 191.997 423.623 217.371C424.318 188.731 419.238 159.487 407.564 131.301C386.848 81.2493 347.018 39.0912 293.005 16.742V16.7722C242.954 -3.97415 185.009 -5.60725 130.996 16.7722C80.9143 37.4884 38.7864 77.3178 16.4069 131.331C5.21718 158.368 -0.347452 187.733 0.37837 217.492Z" fill="black"/>
</svg>
