<svg width="500" height="497" viewBox="0 0 500 497" fill="none" xmlns="http://www.w3.org/2000/svg">
<path d="M250.014 0.450684C114.437 0.450684 4.14258 110.745 4.14258 246.323C4.14258 381.9 114.437 492.194 250.014 492.194C385.592 492.194 495.886 381.87 495.886 246.323C495.886 110.715 385.562 0.450684 250.014 0.450684Z" fill="url(#paint0_linear)"/>
<path d="M250.014 15.5718C122.784 15.5718 19.2637 119.062 19.2637 246.322C19.2637 373.553 122.784 477.073 250.014 477.073C377.245 477.073 480.765 373.523 480.765 246.322C480.765 119.062 377.245 15.5718 250.014 15.5718Z" fill="url(#paint1_linear)"/>
<path d="M467.58 246.292C467.58 366.476 370.169 463.888 249.985 463.888C129.801 463.888 32.3896 366.476 32.3896 246.292C32.3896 126.139 129.801 28.7275 249.985 28.7275C370.169 28.7275 467.58 126.139 467.58 246.292Z" fill="#C22B5D"/>
<path d="M491.29 246.292C491.29 251.343 487.177 255.486 482.096 255.486C477.046 255.486 472.933 251.343 472.933 246.292C472.933 241.242 477.046 237.099 482.096 237.099C487.177 237.099 491.29 241.242 491.29 246.292Z" fill="#F2F2D0"/>
<path d="M486.179 241.574C485.484 245.99 481.673 249.347 477.107 249.347C476.865 249.347 476.593 249.256 476.351 249.256C477.379 251.524 479.587 253.066 482.218 253.066C485.817 253.066 488.72 250.163 488.72 246.595C488.75 244.538 487.692 242.754 486.179 241.574Z" fill="#D6A651"/>
<path opacity="0.0434783" d="M499.516 246.292C499.516 255.909 491.714 263.682 482.097 263.682C472.51 263.682 464.707 255.909 464.707 246.292C464.707 236.645 472.51 228.903 482.097 228.903C491.714 228.903 499.516 236.645 499.516 246.292Z" fill="#F3F3DD"/>
<path opacity="0.0869565" d="M499.032 246.292C499.032 255.637 491.441 263.198 482.096 263.198C472.751 263.198 465.19 255.637 465.19 246.292C465.19 236.917 472.751 229.387 482.096 229.387C491.441 229.387 499.032 236.917 499.032 246.292Z" fill="#F3F3DB"/>
<path opacity="0.1304" d="M498.548 246.292C498.548 255.365 491.169 262.714 482.096 262.714C473.024 262.714 465.675 255.365 465.675 246.292C465.675 237.189 473.024 229.871 482.096 229.871C491.199 229.871 498.548 237.189 498.548 246.292Z" fill="#F4F4D9"/>
<path opacity="0.1739" d="M498.094 246.292C498.094 255.123 490.927 262.26 482.126 262.26C473.326 262.26 466.188 255.123 466.188 246.292C466.188 237.431 473.326 230.324 482.126 230.324C490.927 230.354 498.094 237.461 498.094 246.292Z" fill="#F4F4D7"/>
<path opacity="0.2174" d="M497.61 246.292C497.61 254.851 490.654 261.776 482.126 261.776C473.597 261.776 466.642 254.851 466.642 246.292C466.642 237.703 473.567 230.808 482.126 230.808C490.654 230.838 497.61 237.734 497.61 246.292Z" fill="#F5F5D5"/>
<path opacity="0.2609" d="M497.127 246.292C497.127 254.579 490.382 261.293 482.096 261.293C473.81 261.293 467.096 254.579 467.096 246.292C467.096 237.976 473.81 231.292 482.096 231.292C490.382 231.292 497.127 237.976 497.127 246.292Z" fill="#F5F5D3"/>
<path opacity="0.3043" d="M496.643 246.292C496.643 254.307 490.111 260.809 482.097 260.809C474.082 260.809 467.58 254.307 467.58 246.292C467.58 238.248 474.082 231.776 482.097 231.776C490.141 231.776 496.643 238.248 496.643 246.292Z" fill="#F6F6D1"/>
<path opacity="0.3478" d="M496.159 246.292C496.159 254.065 489.868 260.325 482.096 260.325C474.354 260.325 468.063 254.034 468.063 246.292C468.063 238.52 474.354 232.26 482.096 232.26C489.868 232.26 496.159 238.52 496.159 246.292Z" fill="#F7F7CF"/>
<path opacity="0.3913" d="M495.675 246.292C495.675 253.792 489.597 259.871 482.096 259.871C474.627 259.871 468.548 253.792 468.548 246.292C468.548 238.762 474.627 232.713 482.096 232.713C489.597 232.744 495.675 238.792 495.675 246.292Z" fill="#F7F7CD"/>
<path opacity="0.4348" d="M495.221 246.292C495.221 253.52 489.354 259.387 482.126 259.387C474.898 259.387 469.062 253.52 469.062 246.292C469.062 239.034 474.929 233.197 482.126 233.197C489.324 233.228 495.221 239.064 495.221 246.292Z" fill="#F8F8CB"/>
<path opacity="0.4783" d="M494.737 246.292C494.737 253.248 489.082 258.903 482.126 258.903C475.17 258.903 469.515 253.248 469.515 246.292C469.515 239.306 475.17 233.681 482.126 233.681C489.082 233.681 494.737 239.306 494.737 246.292Z" fill="#F8F8C9"/>
<path opacity="0.5217" d="M494.254 246.292C494.254 253.006 488.81 258.42 482.096 258.42C475.412 258.42 469.969 252.976 469.969 246.292C469.969 239.578 475.412 234.165 482.096 234.165C488.81 234.165 494.254 239.578 494.254 246.292Z" fill="#F9F9C8"/>
<path opacity="0.5652" d="M493.77 246.292C493.77 252.734 488.538 257.936 482.097 257.936C475.685 257.936 470.453 252.704 470.453 246.292C470.453 239.851 475.655 234.649 482.097 234.649C488.538 234.649 493.77 239.851 493.77 246.292Z" fill="#F9F9C6"/>
<path opacity="0.6087" d="M493.286 246.292C493.286 252.462 488.266 257.482 482.096 257.482C475.927 257.482 470.937 252.462 470.937 246.292C470.937 240.093 475.927 235.103 482.096 235.103C488.266 235.133 493.286 240.123 493.286 246.292Z" fill="#FAFAC4"/>
<path opacity="0.6522" d="M492.802 246.292C492.802 252.19 487.994 256.998 482.096 256.998C476.199 256.998 471.421 252.22 471.421 246.292C471.421 240.365 476.199 235.586 482.096 235.586C488.024 235.617 492.802 240.395 492.802 246.292Z" fill="#FAFAC2"/>
<path opacity="0.6957" d="M492.348 246.292C492.348 251.948 487.751 256.514 482.126 256.514C476.501 256.514 471.935 251.948 471.935 246.292C471.935 240.637 476.501 236.07 482.126 236.07C487.751 236.07 492.348 240.667 492.348 246.292Z" fill="#FBFBC0"/>
<path opacity="0.7391" d="M491.864 246.292C491.864 251.676 487.479 256.03 482.126 256.03C476.773 256.03 472.388 251.676 472.388 246.292C472.388 240.909 476.743 236.554 482.126 236.554C487.479 236.554 491.864 240.909 491.864 246.292Z" fill="#FCFCBE"/>
<path opacity="0.7826" d="M491.38 246.292C491.38 251.403 487.237 255.546 482.096 255.546C476.985 255.546 472.842 251.403 472.842 246.292C472.842 241.181 476.985 237.038 482.096 237.038C487.237 237.038 491.38 241.181 491.38 246.292Z" fill="#FCFCBC"/>
<path opacity="0.8261" d="M490.897 246.292C490.897 251.131 486.966 255.093 482.097 255.093C477.258 255.093 473.326 251.161 473.326 246.292C473.326 241.453 477.258 237.492 482.097 237.492C486.966 237.522 490.897 241.453 490.897 246.292Z" fill="#FDFDBA"/>
<path opacity="0.8696" d="M490.413 246.292C490.413 250.859 486.693 254.609 482.096 254.609C477.529 254.609 473.81 250.889 473.81 246.292C473.81 241.695 477.529 237.976 482.096 237.976C486.693 238.006 490.413 241.726 490.413 246.292Z" fill="#FDFDB8"/>
<path opacity="0.913" d="M489.929 246.292C489.929 250.617 486.421 254.125 482.096 254.125C477.772 254.125 474.294 250.617 474.294 246.292C474.294 241.968 477.802 238.459 482.096 238.459C486.421 238.459 489.929 241.998 489.929 246.292Z" fill="#FEFEB6"/>
<path opacity="0.9565" d="M489.475 246.292C489.475 250.345 486.179 253.641 482.126 253.641C478.074 253.641 474.808 250.345 474.808 246.292C474.808 242.24 478.104 238.943 482.126 238.943C486.179 238.943 489.475 242.24 489.475 246.292Z" fill="#FEFEB4"/>
<path d="M488.991 246.292C488.991 250.073 485.906 253.157 482.126 253.157C478.345 253.157 475.261 250.073 475.261 246.292C475.261 242.512 478.345 239.427 482.126 239.427C485.906 239.427 488.991 242.512 488.991 246.292Z" fill="#FFFFB2"/>
<path d="M259.179 478.434C259.179 483.485 255.066 487.628 249.985 487.628C244.934 487.628 240.821 483.485 240.821 478.434C240.821 473.383 244.934 469.24 249.985 469.24C255.066 469.24 259.179 473.383 259.179 478.434Z" fill="#F2F2D0"/>
<path d="M254.068 473.716C253.373 478.131 249.592 481.488 244.995 481.488C244.753 481.488 244.481 481.397 244.239 481.397C245.268 483.666 247.505 485.208 250.137 485.208C253.735 485.208 256.639 482.305 256.639 478.736C256.608 476.68 255.58 474.895 254.068 473.716Z" fill="#D6A651"/>
<path opacity="0.0434783" d="M267.405 478.434C267.405 488.051 259.602 495.823 249.985 495.823C240.398 495.823 232.596 488.051 232.596 478.434C232.596 468.787 240.398 461.044 249.985 461.044C259.602 461.044 267.405 468.787 267.405 478.434Z" fill="#F3F3DD"/>
<path opacity="0.0869565" d="M266.921 478.434C266.921 487.809 259.33 495.34 249.985 495.34C240.67 495.34 233.079 487.779 233.079 478.434C233.079 469.059 240.67 461.528 249.985 461.528C259.33 461.528 266.921 469.059 266.921 478.434Z" fill="#F3F3DB"/>
<path opacity="0.1304" d="M266.437 478.434C266.437 487.537 259.058 494.856 249.985 494.856C240.912 494.856 233.563 487.507 233.563 478.434C233.563 469.331 240.943 462.012 249.985 462.012C259.058 462.012 266.437 469.331 266.437 478.434Z" fill="#F4F4D9"/>
<path opacity="0.1739" d="M265.953 478.434C265.953 487.265 258.785 494.402 249.985 494.402C241.184 494.402 234.047 487.265 234.047 478.434C234.047 469.573 241.184 462.496 249.985 462.496C258.815 462.496 265.953 469.573 265.953 478.434Z" fill="#F4F4D7"/>
<path opacity="0.2174" d="M265.499 478.434C265.499 486.993 258.543 493.918 249.984 493.918C241.456 493.918 234.5 486.993 234.5 478.434C234.5 469.845 241.426 462.95 249.984 462.95C258.543 462.95 265.499 469.845 265.499 478.434Z" fill="#F5F5D5"/>
<path opacity="0.2609" d="M265.015 478.434C265.015 486.72 258.271 493.434 249.985 493.434C241.728 493.434 234.984 486.72 234.984 478.434C234.984 470.117 241.698 463.434 249.985 463.434C258.271 463.434 265.015 470.117 265.015 478.434Z" fill="#F5F5D3"/>
<path opacity="0.3043" d="M264.532 478.434C264.532 486.478 258.03 492.95 249.985 492.95C241.971 492.95 235.469 486.448 235.469 478.434C235.469 470.389 241.971 463.917 249.985 463.917C257.999 463.917 264.532 470.389 264.532 478.434Z" fill="#F6F6D1"/>
<path opacity="0.3478" d="M264.047 478.434C264.047 486.206 257.757 492.466 249.985 492.466C242.243 492.466 235.952 486.176 235.952 478.434C235.952 470.662 242.243 464.401 249.985 464.401C257.757 464.401 264.047 470.662 264.047 478.434Z" fill="#F7F7CF"/>
<path opacity="0.3913" d="M263.564 478.434C263.564 485.934 257.485 492.012 249.985 492.012C242.515 492.012 236.437 485.934 236.437 478.434C236.437 470.903 242.515 464.885 249.985 464.885C257.485 464.855 263.564 470.903 263.564 478.434Z" fill="#F7F7CD"/>
<path opacity="0.4348" d="M263.08 478.434C263.08 485.662 257.213 491.529 249.985 491.529C242.787 491.529 236.92 485.662 236.92 478.434C236.92 471.176 242.787 465.339 249.985 465.339C257.213 465.339 263.08 471.176 263.08 478.434Z" fill="#F8F8CB"/>
<path opacity="0.4783" d="M262.626 478.434C262.626 485.42 256.97 491.045 249.984 491.045C243.028 491.045 237.373 485.42 237.373 478.434C237.373 471.448 243.028 465.823 249.984 465.823C256.94 465.823 262.626 471.448 262.626 478.434Z" fill="#F8F8C9"/>
<path opacity="0.5217" d="M262.142 478.434C262.142 485.148 256.699 490.561 249.985 490.561C243.301 490.561 237.857 485.148 237.857 478.434C237.857 471.72 243.301 466.307 249.985 466.307C256.699 466.307 262.142 471.72 262.142 478.434Z" fill="#F9F9C8"/>
<path opacity="0.5652" d="M261.659 478.434C261.659 484.876 256.427 490.108 249.985 490.108C243.574 490.108 238.342 484.906 238.342 478.434C238.342 471.992 243.574 466.791 249.985 466.791C256.427 466.791 261.659 471.992 261.659 478.434Z" fill="#F9F9C6"/>
<path opacity="0.6087" d="M261.174 478.434C261.174 484.603 256.154 489.624 249.985 489.624C243.845 489.624 238.825 484.634 238.825 478.434C238.825 472.264 243.845 467.244 249.985 467.244C256.154 467.244 261.174 472.234 261.174 478.434Z" fill="#FAFAC4"/>
<path opacity="0.6522" d="M260.691 478.434C260.691 484.361 255.882 489.14 249.985 489.14C244.088 489.14 239.31 484.361 239.31 478.434C239.31 472.506 244.118 467.728 249.985 467.728C255.913 467.728 260.691 472.506 260.691 478.434Z" fill="#FAFAC2"/>
<path opacity="0.6957" d="M260.207 478.434C260.207 484.089 255.61 488.656 249.985 488.656C244.36 488.656 239.793 484.089 239.793 478.434C239.793 472.779 244.36 468.212 249.985 468.212C255.64 468.212 260.207 472.779 260.207 478.434Z" fill="#FBFBC0"/>
<path opacity="0.7391" d="M259.753 478.434C259.753 483.817 255.398 488.172 249.984 488.172C244.631 488.172 240.246 483.817 240.246 478.434C240.246 473.051 244.601 468.696 249.984 468.696C255.367 468.696 259.753 473.051 259.753 478.434Z" fill="#FCFCBE"/>
<path opacity="0.7826" d="M259.269 478.434C259.269 483.545 255.126 487.718 249.985 487.718C244.904 487.718 240.73 483.575 240.73 478.434C240.73 473.323 244.874 469.18 249.985 469.18C255.096 469.18 259.269 473.323 259.269 478.434Z" fill="#FCFCBC"/>
<path opacity="0.8261" d="M258.786 478.434C258.786 483.273 254.854 487.234 249.985 487.234C245.146 487.234 241.215 483.303 241.215 478.434C241.215 473.595 245.146 469.633 249.985 469.633C254.854 469.633 258.786 473.565 258.786 478.434Z" fill="#FDFDBA"/>
<path opacity="0.8696" d="M258.301 478.434C258.301 483.031 254.582 486.751 249.985 486.751C245.418 486.751 241.698 483.031 241.698 478.434C241.698 473.837 245.418 470.117 249.985 470.117C254.582 470.117 258.301 473.837 258.301 478.434Z" fill="#FDFDB8"/>
<path opacity="0.913" d="M257.818 478.434C257.818 482.759 254.31 486.267 249.985 486.267C245.691 486.267 242.183 482.759 242.183 478.434C242.183 474.109 245.691 470.601 249.985 470.601C254.31 470.601 257.818 474.109 257.818 478.434Z" fill="#FEFEB6"/>
<path opacity="0.9565" d="M257.334 478.434C257.334 482.486 254.037 485.783 249.985 485.783C245.962 485.783 242.666 482.486 242.666 478.434C242.666 474.381 245.962 471.085 249.985 471.085C254.067 471.085 257.334 474.381 257.334 478.434Z" fill="#FEFEB4"/>
<path d="M256.88 478.434C256.88 482.214 253.795 485.329 249.984 485.329C246.204 485.329 243.119 482.244 243.119 478.434C243.119 474.653 246.204 471.569 249.984 471.569C253.795 471.538 256.88 474.653 256.88 478.434Z" fill="#FFFFB2"/>
<path d="M27.0672 247.321C27.0672 252.371 22.9542 256.514 17.8734 256.514C12.8229 256.514 8.70996 252.371 8.70996 247.321C8.70996 242.27 12.8229 238.127 17.8734 238.127C22.9542 238.127 27.0672 242.27 27.0672 247.321Z" fill="#F2F2D0"/>
<path d="M21.9568 242.603C21.2612 247.018 17.4809 250.375 12.884 250.375C12.6421 250.375 12.3699 250.284 12.1279 250.284C13.1562 252.552 15.3639 254.095 18.0252 254.095C21.5938 254.095 24.5274 251.191 24.5274 247.623C24.4971 245.536 23.4689 243.782 21.9568 242.603Z" fill="#D6A651"/>
<path opacity="0.0434783" d="M35.2935 247.321C35.2935 256.938 27.491 264.71 17.8738 264.71C8.28695 264.71 0.484375 256.938 0.484375 247.321C0.484375 237.673 8.28695 229.931 17.8738 229.931C27.491 229.931 35.2935 237.673 35.2935 247.321Z" fill="#F3F3DD"/>
<path opacity="0.0869565" d="M34.8092 247.321C34.8092 256.666 27.2183 264.226 17.8734 264.226C8.52841 264.226 0.967773 256.666 0.967773 247.321C0.967773 237.945 8.55865 230.415 17.8734 230.415C27.2183 230.415 34.8092 237.945 34.8092 247.321Z" fill="#F3F3DB"/>
<path opacity="0.1304" d="M34.3258 247.321C34.3258 256.424 26.9466 263.742 17.8738 263.742C8.80109 263.742 1.45215 256.393 1.45215 247.321C1.45215 238.218 8.83133 230.899 17.8738 230.899C26.9466 230.899 34.3258 238.218 34.3258 247.321Z" fill="#F4F4D9"/>
<path opacity="0.1739" d="M33.8414 247.321C33.8414 256.151 26.6739 263.258 17.8733 263.258C9.07275 263.258 1.90527 256.121 1.90527 247.321C1.90527 238.46 9.04251 231.353 17.8733 231.353C26.6739 231.383 33.8414 238.49 33.8414 247.321Z" fill="#F4F4D7"/>
<path opacity="0.2174" d="M33.357 247.321C33.357 255.879 26.4012 262.805 17.8729 262.805C9.34445 262.805 2.38867 255.879 2.38867 247.321C2.38867 238.732 9.31421 231.836 17.8729 231.836C26.4315 231.836 33.357 238.732 33.357 247.321Z" fill="#F5F5D5"/>
<path opacity="0.2609" d="M32.9039 247.321C32.9039 255.607 26.1598 262.321 17.8734 262.321C9.58689 262.321 2.87305 255.637 2.87305 247.321C2.87305 239.004 9.58689 232.32 17.8734 232.32C26.1598 232.32 32.9039 239.004 32.9039 247.321Z" fill="#F5F5D3"/>
<path opacity="0.3043" d="M32.4205 247.321C32.4205 255.335 25.8881 261.837 17.8738 261.837C9.85957 261.837 3.35742 255.365 3.35742 247.321C3.35742 239.276 9.85957 232.804 17.8738 232.804C25.8881 232.804 32.4205 239.276 32.4205 247.321Z" fill="#F6F6D1"/>
<path opacity="0.3478" d="M31.9361 247.321C31.9361 255.093 25.6457 261.353 17.8734 261.353C10.1313 261.353 3.84082 255.093 3.84082 247.321C3.84082 239.548 10.1313 233.288 17.8734 233.288C25.6155 233.288 31.9361 239.548 31.9361 247.321Z" fill="#F7F7CF"/>
<path opacity="0.3913" d="M31.4528 247.321C31.4528 254.821 25.374 260.869 17.8739 260.869C10.4039 260.869 4.3252 254.821 4.3252 247.321C4.3252 239.79 10.4039 233.742 17.8739 233.742C25.374 233.772 31.4528 239.82 31.4528 247.321Z" fill="#F7F7CD"/>
<path opacity="0.4348" d="M30.9684 247.321C30.9684 254.549 25.1013 260.416 17.8734 260.416C10.6454 260.416 4.80859 254.579 4.80859 247.321C4.80859 240.062 10.6756 234.226 17.8734 234.226C25.1013 234.226 30.9684 240.062 30.9684 247.321Z" fill="#F8F8CB"/>
<path opacity="0.4783" d="M30.484 247.321C30.484 254.276 24.8286 259.932 17.8729 259.932C10.9171 259.932 5.26172 254.307 5.26172 247.321C5.26172 240.335 10.9171 234.709 17.8729 234.709C24.8286 234.709 30.484 240.335 30.484 247.321Z" fill="#F8F8C9"/>
<path opacity="0.5217" d="M30.0309 247.321C30.0309 254.035 24.5872 259.448 17.8734 259.448C11.1898 259.448 5.74609 254.035 5.74609 247.321C5.74609 240.607 11.1898 235.193 17.8734 235.193C24.5872 235.193 30.0309 240.607 30.0309 247.321Z" fill="#F9F9C8"/>
<path opacity="0.5652" d="M29.5475 247.321C29.5475 253.762 24.3155 258.964 17.8738 258.964C11.4624 258.964 6.23047 253.762 6.23047 247.321C6.23047 240.879 11.4624 235.677 17.8738 235.677C24.3155 235.677 29.5475 240.879 29.5475 247.321Z" fill="#F9F9C6"/>
<path opacity="0.6087" d="M29.0631 247.321C29.0631 253.49 24.0428 258.48 17.8734 258.48C11.7039 258.48 6.71387 253.49 6.71387 247.321C6.71387 241.121 11.7039 236.131 17.8734 236.131C24.0428 236.161 29.0631 241.151 29.0631 247.321Z" fill="#FAFAC4"/>
<path opacity="0.6522" d="M28.5797 247.321C28.5797 253.218 23.7712 258.026 17.8739 258.026C11.9766 258.026 7.19824 253.248 7.19824 247.321C7.19824 241.393 11.9766 236.615 17.8739 236.615C23.7712 236.615 28.5797 241.393 28.5797 247.321Z" fill="#FAFAC2"/>
<path opacity="0.6957" d="M28.0954 247.321C28.0954 252.946 23.4985 257.543 17.8734 257.543C12.2483 257.543 7.68164 252.976 7.68164 247.321C7.68164 241.665 12.2483 237.099 17.8734 237.099C23.5287 237.099 28.0954 241.665 28.0954 247.321Z" fill="#FBFBC0"/>
<path opacity="0.7391" d="M27.611 247.321C27.611 252.704 23.256 257.059 17.8729 257.059C12.5199 257.059 8.13477 252.704 8.13477 247.321C8.13477 241.937 12.4897 237.583 17.8729 237.583C23.256 237.583 27.611 241.937 27.611 247.321Z" fill="#FCFCBE"/>
<path opacity="0.7826" d="M27.1275 247.321C27.1275 252.432 22.9843 256.575 17.8431 256.575C12.7321 256.575 8.58887 252.432 8.58887 247.321C8.58887 242.21 12.7321 238.066 17.8431 238.066C22.9843 238.066 27.1275 242.21 27.1275 247.321Z" fill="#FCFCBC"/>
<path opacity="0.8261" d="M26.6744 247.321C26.6744 252.159 22.7429 256.091 17.8739 256.091C13.035 256.091 9.10352 252.159 9.10352 247.321C9.10352 242.452 13.035 238.52 17.8739 238.52C22.7127 238.55 26.6744 242.482 26.6744 247.321Z" fill="#FDFDBA"/>
<path opacity="0.8696" d="M26.1901 247.321C26.1901 251.887 22.4702 255.637 17.8734 255.637C13.3067 255.637 9.58691 251.917 9.58691 247.321C9.58691 242.724 13.3067 239.004 17.8734 239.004C22.4702 239.004 26.1901 242.724 26.1901 247.321Z" fill="#FDFDB8"/>
<path opacity="0.913" d="M25.7067 247.321C25.7067 251.645 22.1986 255.153 17.8739 255.153C13.5794 255.153 10.0713 251.645 10.0713 247.321C10.0713 242.996 13.5794 239.488 17.8739 239.488C22.1986 239.488 25.7067 242.996 25.7067 247.321Z" fill="#FEFEB6"/>
<path opacity="0.9565" d="M25.2223 247.321C25.2223 251.373 21.9259 254.67 17.8734 254.67C13.8209 254.67 10.5547 251.373 10.5547 247.321C10.5547 243.268 13.8511 239.972 17.8734 239.972C21.9259 239.972 25.2223 243.268 25.2223 247.321Z" fill="#FEFEB4"/>
<path d="M24.7379 247.321C24.7379 251.101 21.6532 254.186 17.8729 254.186C14.0926 254.186 11.0078 251.101 11.0078 247.321C11.0078 243.54 14.0926 240.456 17.8729 240.456C21.6834 240.456 24.7379 243.54 24.7379 247.321Z" fill="#FFFFB2"/>
<path d="M95.0525 82.1963C95.0525 87.2468 90.9396 91.3598 85.8588 91.39C80.8083 91.39 76.6953 87.2468 76.6953 82.1963C76.6953 77.1156 80.8083 73.0026 85.8588 73.0026C90.9396 72.9724 95.0525 77.1156 95.0525 82.1963Z" fill="#F2F2D0"/>
<path d="M89.9421 77.4785C89.2465 81.8334 85.4662 85.2206 80.8693 85.2206C80.5972 85.2508 80.3552 85.1601 80.1133 85.1601C81.1415 87.398 83.3795 88.9707 86.0106 88.9404C89.5792 88.9404 92.4825 86.0371 92.4825 82.4988C92.5127 80.412 91.4542 78.6277 89.9421 77.4785Z" fill="#D6A651"/>
<path opacity="0.0434783" d="M103.279 82.1961C103.279 91.8132 95.4763 99.5553 85.8592 99.5856C76.2723 99.5856 68.4697 91.8132 68.4697 82.1961C68.4697 72.5185 76.2723 64.8066 85.8592 64.8066C95.4461 64.8066 103.279 72.5185 103.279 82.1961Z" fill="#F3F3DD"/>
<path opacity="0.0869565" d="M102.795 82.1961C102.795 91.541 95.2037 99.0714 85.8587 99.1017C76.544 99.1017 68.9531 91.541 68.9531 82.1961C68.9531 72.7907 76.5138 65.2905 85.8587 65.2905C95.1734 65.2905 102.795 72.7907 102.795 82.1961Z" fill="#F3F3DB"/>
<path opacity="0.1304" d="M102.311 82.1961C102.311 91.2689 94.932 98.6178 85.8592 98.6178C76.7864 98.6178 69.4375 91.2689 69.4375 82.1961C69.4375 73.0628 76.7864 65.7441 85.8592 65.7441C94.932 65.7744 102.311 73.0628 102.311 82.1961Z" fill="#F4F4D9"/>
<path opacity="0.1739" d="M101.827 82.1961C101.827 91.0269 94.6593 98.1339 85.8587 98.1339C77.0581 98.1339 69.9209 90.9967 69.9209 82.1961C69.9209 73.335 77.0581 66.228 85.8587 66.228C94.6593 66.228 101.827 73.335 101.827 82.1961Z" fill="#F4F4D7"/>
<path opacity="0.2174" d="M101.343 82.1961C101.343 90.7548 94.3877 97.6501 85.829 97.6803C77.3006 97.6803 70.3449 90.7548 70.3751 82.1961C70.3751 73.577 77.3006 66.7119 85.829 66.7119C94.3877 66.7119 101.343 73.6072 101.343 82.1961Z" fill="#F5F5D5"/>
<path opacity="0.2609" d="M100.889 82.1961C100.889 90.4826 94.1452 97.1662 85.8587 97.1964C77.6025 97.1964 70.8584 90.4826 70.8584 82.1961C70.8584 73.8492 77.5722 67.1958 85.8587 67.1958C94.1452 67.1958 100.889 73.8492 100.889 82.1961Z" fill="#F5F5D3"/>
<path opacity="0.3043" d="M100.406 82.1962C100.406 90.2105 93.9037 96.7126 85.8592 96.7126C77.8449 96.7126 71.3428 90.2105 71.3428 82.1962C71.3428 74.1214 77.8449 67.6496 85.8592 67.6798C93.8735 67.6798 100.406 74.1214 100.406 82.1962Z" fill="#F6F6D1"/>
<path opacity="0.3478" d="M99.9215 82.1961C99.9215 89.9382 93.6311 96.2286 85.8587 96.2286C78.1166 96.2286 71.8262 89.9382 71.8262 82.1961C71.8262 74.3935 78.1166 68.1333 85.8587 68.1333C93.6008 68.1635 99.9215 74.3935 99.9215 82.1961Z" fill="#F7F7CF"/>
<path opacity="0.3913" d="M99.4381 82.1961C99.4381 89.6963 93.3594 95.7448 85.8592 95.775C78.3893 95.775 72.3105 89.6963 72.3105 82.1961C72.3105 74.6657 78.3893 68.6172 85.8592 68.6172C93.3594 68.6172 99.4381 74.6657 99.4381 82.1961Z" fill="#F7F7CD"/>
<path opacity="0.4348" d="M98.9537 82.1961C98.9537 89.4241 93.0867 95.2609 85.8587 95.2911C78.661 95.2911 72.7939 89.4241 72.7939 82.1961C72.7939 74.9076 78.661 69.1011 85.8587 69.1011C93.0867 69.1011 98.9537 74.9379 98.9537 82.1961Z" fill="#F8F8CB"/>
<path opacity="0.4783" d="M98.4695 82.1962C98.4695 89.152 92.8141 94.8074 85.8583 94.8074C78.9026 94.8074 73.2472 89.152 73.2775 82.1962C73.2775 75.18 78.9328 69.5548 85.8583 69.5851C92.8141 69.5851 98.4695 75.18 98.4695 82.1962Z" fill="#F8F8C9"/>
<path opacity="0.5217" d="M98.0164 82.1962C98.0164 88.8798 92.5727 94.3235 85.8589 94.3235C79.1753 94.3235 73.7316 88.8798 73.7618 82.1962C73.7618 75.4521 79.1753 70.0387 85.8589 70.069C92.5425 70.069 98.0164 75.4521 98.0164 82.1962Z" fill="#F9F9C8"/>
<path opacity="0.5652" d="M97.5328 82.1963C97.5328 88.6077 92.3009 93.8397 85.8592 93.8397C79.4478 93.8397 74.2158 88.6077 74.2158 82.1963C74.2158 75.7243 79.4175 70.5226 85.8592 70.5529C92.3009 70.5529 97.5328 75.7243 97.5328 82.1963Z" fill="#F9F9C6"/>
<path opacity="0.6087" d="M97.0484 82.1961C97.0484 88.3656 92.0282 93.3556 85.8587 93.3858C79.7195 93.3858 74.6992 88.3656 74.6992 82.1961C74.6992 75.9964 79.6892 71.0063 85.8587 71.0063C92.0282 71.0063 97.0484 75.9964 97.0484 82.1961Z" fill="#FAFAC4"/>
<path opacity="0.6522" d="M96.5651 82.1958C96.5651 88.0931 91.7565 92.8714 85.8592 92.9016C79.9922 92.9016 75.1836 88.0931 75.1836 82.1958C75.1836 76.238 79.9619 71.4596 85.8592 71.4899C91.7565 71.4899 96.5651 76.238 96.5651 82.1958Z" fill="#FAFAC2"/>
<path opacity="0.6957" d="M96.0807 82.1963C96.0807 87.8214 91.5141 92.4183 85.8587 92.4183C80.2336 92.4183 75.667 87.8214 75.667 82.1963C75.667 76.5107 80.2336 71.944 85.8587 71.9743C91.5141 71.9743 96.0807 76.5107 96.0807 82.1963Z" fill="#FBFBC0"/>
<path opacity="0.7391" d="M95.5975 82.1962C95.5975 87.5492 91.2426 91.9343 85.8594 91.9343C80.5064 91.9343 76.1213 87.5492 76.1515 82.1962C76.1515 76.7828 80.5064 72.4582 85.8594 72.4582C91.2426 72.4279 95.5975 76.7828 95.5975 82.1962Z" fill="#FCFCBE"/>
<path opacity="0.7826" d="M95.1131 82.1963C95.1131 87.277 90.9699 91.4505 85.8286 91.4505C80.7479 91.4505 76.5744 87.3073 76.6047 82.1963C76.6047 77.055 80.7479 72.9421 85.8286 72.9421C90.9699 72.9118 95.1131 77.055 95.1131 82.1963Z" fill="#FCFCBC"/>
<path opacity="0.8261" d="M94.659 82.1961C94.659 87.0349 90.7275 90.9664 85.8584 90.9966C81.0499 90.9966 77.0881 87.0651 77.1183 82.1961C77.1183 77.327 81.0499 73.4258 85.8584 73.3955C90.6973 73.3955 94.659 77.327 94.659 82.1961Z" fill="#FDFDBA"/>
<path opacity="0.8696" d="M94.1754 82.1961C94.1754 86.7627 90.4556 90.5128 85.8587 90.5128C81.2921 90.5128 77.5723 86.793 77.5723 82.1961C77.5723 77.569 81.2921 73.9096 85.8587 73.8794C90.4556 73.8794 94.1754 77.569 94.1754 82.1961Z" fill="#FDFDB8"/>
<path opacity="0.913" d="M93.692 82.1961C93.692 86.4905 90.1839 90.0289 85.8592 90.0289C81.5648 90.0289 78.0566 86.5208 78.0566 82.1961C78.0566 77.8412 81.5345 74.3633 85.8592 74.3633C90.1839 74.3633 93.692 77.8412 93.692 82.1961Z" fill="#FEFEB6"/>
<path opacity="0.9565" d="M93.2077 82.1963C93.2077 86.2186 89.9112 89.5453 85.8587 89.5453C81.8365 89.5453 78.54 86.2488 78.54 82.1963C78.54 78.1136 81.8062 74.8474 85.8587 74.8474C89.9112 74.8171 93.2077 78.1136 93.2077 82.1963Z" fill="#FEFEB4"/>
<path d="M92.7235 82.196C92.7235 85.9461 89.6388 89.0611 85.8585 89.0611C82.1084 89.0611 78.9934 85.9763 79.0237 82.196C79.0237 78.3854 82.0782 75.2705 85.8585 75.3309C89.669 75.3309 92.7235 78.3854 92.7235 82.196Z" fill="#FFFFB2"/>
<path d="M423.306 82.1661C423.306 87.2468 419.223 91.3901 414.142 91.3598C409.092 91.3598 404.979 87.2468 404.979 82.1661C404.979 77.1458 409.092 73.0026 414.142 73.0026C419.193 72.9724 423.306 77.1156 423.306 82.1661Z" fill="#F2F2D0"/>
<path d="M418.194 77.4785C417.529 81.8334 413.718 85.2206 409.121 85.2206C408.91 85.2206 408.637 85.1299 408.365 85.1601C409.393 87.3981 411.662 88.9404 414.263 88.9404C417.831 88.9707 420.734 86.0674 420.765 82.4988C420.765 80.412 419.706 78.6277 418.194 77.4785Z" fill="#D6A651"/>
<path opacity="0.0434783" d="M431.531 82.1961C431.531 91.8132 423.728 99.5553 414.111 99.5553C404.524 99.5553 396.722 91.8132 396.722 82.1658C396.722 72.5185 404.524 64.7764 414.111 64.7764C423.728 64.7764 431.531 72.5487 431.531 82.1961Z" fill="#F3F3DD"/>
<path opacity="0.0869565" d="M431.047 82.1961C431.047 91.541 423.457 99.0714 414.112 99.0714C404.797 99.0714 397.206 91.541 397.206 82.1658C397.206 72.7907 404.797 65.2603 414.142 65.2603C423.457 65.2603 431.047 72.8209 431.047 82.1961Z" fill="#F3F3DB"/>
<path opacity="0.1304" d="M430.563 82.1961C430.563 91.2991 423.184 98.6178 414.111 98.6178C405.069 98.6178 397.689 91.2991 397.689 82.1659C397.689 73.0628 405.069 65.7441 414.141 65.7441C423.184 65.7441 430.563 73.0628 430.563 82.1961Z" fill="#F4F4D9"/>
<path opacity="0.1739" d="M430.08 82.1961C430.08 91.0269 422.942 98.1339 414.112 98.1339C405.311 98.1339 398.174 91.0269 398.144 82.1659C398.144 73.335 405.311 66.228 414.112 66.228C422.942 66.228 430.08 73.335 430.08 82.1961Z" fill="#F4F4D7"/>
<path opacity="0.2174" d="M429.595 82.1961C429.595 90.7547 422.67 97.65 414.111 97.65C405.583 97.65 398.657 90.7547 398.627 82.1658C398.627 73.6072 405.553 66.6816 414.111 66.6816C422.67 66.6816 429.595 73.6072 429.595 82.1961Z" fill="#F5F5D5"/>
<path opacity="0.2609" d="M429.142 82.1961C429.142 90.4825 422.428 97.1662 414.112 97.1662C405.855 97.1662 399.111 90.4826 399.111 82.1658C399.111 73.8491 405.825 67.1655 414.112 67.1655C422.398 67.1655 429.112 73.8794 429.142 82.1961Z" fill="#F5F5D3"/>
<path opacity="0.3043" d="M428.658 82.1962C428.658 90.2407 422.156 96.7126 414.111 96.7126C406.097 96.7126 399.595 90.2407 399.595 82.1962C399.595 74.1517 406.097 67.6798 414.141 67.6798C422.156 67.6496 428.658 74.1517 428.658 82.1962Z" fill="#F6F6D1"/>
<path opacity="0.3478" d="M428.174 82.1961C428.174 89.9684 421.884 96.2286 414.112 96.2286C406.37 96.2286 400.079 89.9684 400.079 82.1658C400.079 74.3935 406.37 68.1333 414.142 68.1333C421.884 68.1333 428.174 74.3935 428.174 82.1961Z" fill="#F7F7CF"/>
<path opacity="0.3913" d="M427.691 82.1961C427.691 89.6962 421.612 95.7447 414.112 95.7447C406.642 95.7447 400.563 89.6962 400.533 82.1658C400.533 74.6657 406.612 68.6172 414.112 68.6172C421.612 68.6172 427.691 74.6657 427.691 82.1961Z" fill="#F7F7CD"/>
<path opacity="0.4348" d="M427.207 82.1961C427.207 89.4241 421.34 95.2609 414.112 95.2609C406.914 95.2609 401.047 89.4241 401.017 82.1658C401.017 74.9379 406.884 69.0708 414.112 69.0708C421.34 69.0708 427.207 74.9379 427.207 82.1961Z" fill="#F8F8CB"/>
<path opacity="0.4783" d="M426.754 82.1962C426.754 89.1823 421.098 94.8074 414.142 94.8074C407.187 94.8074 401.531 89.1823 401.531 82.1962C401.531 75.2102 407.187 69.5851 414.142 69.5851C421.098 69.5548 426.723 75.2102 426.754 82.1962Z" fill="#F8F8C9"/>
<path opacity="0.5217" d="M426.269 82.1962C426.269 88.9101 420.826 94.3235 414.112 94.3235C407.428 94.3235 401.984 88.9101 401.984 82.1962C401.984 75.4824 407.428 70.069 414.112 70.069C420.826 70.0387 426.239 75.4521 426.269 82.1962Z" fill="#F9F9C8"/>
<path opacity="0.5652" d="M425.785 82.1658C425.785 88.6075 420.553 93.8092 414.111 93.8092C407.7 93.8092 402.468 88.6075 402.468 82.1658C402.468 75.7242 407.7 70.5225 414.141 70.5225C420.553 70.5225 425.785 75.7242 425.785 82.1658Z" fill="#F9F9C6"/>
<path opacity="0.6087" d="M425.301 82.1658C425.301 88.3353 420.281 93.3253 414.112 93.3253C407.942 93.3253 402.952 88.3353 402.922 82.1356C402.922 75.9661 407.942 70.9761 414.112 70.9761C420.311 71.0063 425.301 75.9963 425.301 82.1658Z" fill="#FAFAC4"/>
<path opacity="0.6522" d="M424.818 82.1658C424.818 88.0933 420.009 92.8414 414.112 92.8414C408.215 92.8414 403.436 88.0631 403.406 82.1355C403.406 76.208 408.215 71.4297 414.112 71.4297C420.04 71.4599 424.818 76.2685 424.818 82.1658Z" fill="#FAFAC2"/>
<path opacity="0.6957" d="M424.364 82.1658C424.364 87.8212 419.767 92.3878 414.142 92.3878C408.517 92.3878 403.92 87.8212 403.92 82.1658C403.92 76.5105 408.517 71.9438 414.142 71.9438C419.767 71.9438 424.334 76.5105 424.364 82.1658Z" fill="#FBFBC0"/>
<path opacity="0.7391" d="M423.881 82.1658C423.881 87.549 419.495 91.9039 414.142 91.9039C408.789 91.9039 404.404 87.549 404.404 82.1658C404.404 76.7827 408.789 72.4277 414.142 72.4277C419.495 72.4277 423.881 76.7827 423.881 82.1658Z" fill="#FCFCBE"/>
<path opacity="0.7826" d="M423.396 82.1658C423.396 87.2768 419.253 91.4201 414.112 91.4201C409.001 91.4201 404.857 87.2768 404.857 82.1658C404.857 77.0549 409.031 72.9116 414.142 72.9116C419.253 72.9116 423.396 77.0549 423.396 82.1658Z" fill="#FCFCBC"/>
<path opacity="0.8261" d="M422.913 82.1658C422.913 87.0046 418.981 90.9362 414.112 90.9362C409.273 90.9362 405.312 87.0046 405.312 82.1356C405.312 77.2967 409.273 73.335 414.112 73.335C418.981 73.3652 422.913 77.327 422.913 82.1658Z" fill="#FDFDBA"/>
<path opacity="0.8696" d="M422.428 82.1658C422.428 86.7627 418.708 90.4825 414.112 90.4825C409.545 90.4825 405.795 86.7627 405.795 82.1658C405.795 77.569 409.515 73.8491 414.112 73.8491C418.708 73.8491 422.428 77.569 422.428 82.1658Z" fill="#FDFDB8"/>
<path opacity="0.913" d="M421.974 82.1658C421.974 86.4905 418.466 89.9986 414.141 89.9986C409.817 89.9986 406.309 86.4905 406.309 82.1658C406.309 77.8411 409.817 74.333 414.141 74.333C418.436 74.333 421.944 77.8411 421.974 82.1658Z" fill="#FEFEB6"/>
<path opacity="0.9565" d="M421.491 82.1658C421.491 86.2183 418.194 89.5148 414.142 89.5148C410.089 89.5148 406.793 86.2183 406.793 82.1658C406.793 78.1133 410.089 74.8169 414.142 74.8169C418.194 74.8169 421.491 78.1133 421.491 82.1658Z" fill="#FEFEB4"/>
<path d="M421.007 82.1658C421.007 85.9462 417.923 89.0309 414.142 89.0309C410.362 89.0309 407.277 85.9462 407.277 82.1658C407.277 78.3855 410.362 75.3008 414.142 75.3008C417.923 75.3008 420.977 78.3855 421.007 82.1658Z" fill="#FFFFB2"/>
<path d="M162.372 34.7152C162.372 39.796 158.289 43.9392 153.208 43.909C148.158 43.909 144.045 39.796 144.045 34.7152C144.045 29.695 148.158 25.5518 153.208 25.5518C158.289 25.5518 162.372 29.695 162.372 34.7152Z" fill="#F2F2D0"/>
<path d="M157.291 30.0278C156.595 34.413 152.815 37.7699 148.218 37.7699C147.976 37.7699 147.734 37.6792 147.462 37.7094C148.49 39.9474 150.728 41.4897 153.359 41.4897C156.928 41.52 159.831 38.6167 159.861 35.0481C159.831 32.9614 158.803 31.177 157.291 30.0278Z" fill="#D6A651"/>
<g opacity="0.7">
<path opacity="0.0434783" d="M170.598 34.7454C170.598 44.3625 162.796 52.1046 153.179 52.1046C143.592 52.1046 135.819 44.3625 135.789 34.7151C135.789 25.0678 143.592 17.3257 153.179 17.3257C162.826 17.3559 170.598 25.098 170.598 34.7454Z" fill="#F3F3DD"/>
<path opacity="0.0869565" d="M170.144 34.7454C170.144 44.0903 162.553 51.6207 153.208 51.6207C143.894 51.6207 136.303 44.0903 136.303 34.7152C136.303 25.34 143.894 17.8096 153.239 17.8096C162.553 17.8096 170.144 25.3702 170.144 34.7454Z" fill="#F3F3DB"/>
<path opacity="0.1304" d="M169.66 34.7459C169.66 43.8489 162.281 51.1676 153.208 51.1676C144.165 51.1676 136.786 43.8489 136.786 34.7156C136.786 25.6126 144.165 18.2939 153.238 18.2939C162.281 18.2939 169.66 25.6429 169.66 34.7459Z" fill="#F4F4D9"/>
<path opacity="0.1739" d="M169.176 34.7454C169.176 43.5762 162.039 50.6832 153.208 50.6832C144.408 50.6832 137.27 43.5762 137.24 34.7152C137.24 25.8843 144.408 18.7773 153.208 18.7773C162.039 18.7773 169.176 25.9146 169.176 34.7454Z" fill="#F4F4D7"/>
<path opacity="0.2174" d="M168.692 34.7454C168.692 43.304 161.766 50.1993 153.208 50.1993C144.679 50.1993 137.754 43.304 137.724 34.7151C137.724 26.1565 144.679 19.231 153.208 19.231C161.766 19.2612 168.692 26.1565 168.692 34.7454Z" fill="#F5F5D5"/>
<path opacity="0.2609" d="M168.209 34.7454C168.209 43.0318 161.495 49.7154 153.178 49.7154C144.922 49.7154 138.208 43.0318 138.178 34.7151C138.178 26.3984 144.892 19.7148 153.178 19.7148C161.495 19.7451 168.209 26.4287 168.209 34.7454Z" fill="#F5F5D3"/>
<path opacity="0.3043" d="M167.754 34.7455C167.754 42.79 161.252 49.2619 153.208 49.2619C145.194 49.2619 138.691 42.79 138.691 34.7455C138.691 26.701 145.194 20.2291 153.238 20.2291C161.222 20.1989 167.724 26.701 167.754 34.7455Z" fill="#F6F6D1"/>
<path opacity="0.3478" d="M167.271 34.7455C167.271 42.5179 160.981 48.7781 153.208 48.7781C145.466 48.7781 139.176 42.5179 139.176 34.7455C139.176 26.9732 145.466 20.713 153.239 20.713C160.981 20.6828 167.271 26.9732 167.271 34.7455Z" fill="#F7F7CF"/>
<path opacity="0.3913" d="M166.788 34.7459C166.788 42.246 160.709 48.2946 153.209 48.2946C145.739 48.2946 139.66 42.246 139.63 34.7157C139.63 27.2155 145.709 21.167 153.209 21.167C160.709 21.167 166.788 27.2457 166.788 34.7459Z" fill="#F7F7CD"/>
<path opacity="0.4348" d="M166.303 34.7459C166.303 41.9738 160.436 47.8107 153.208 47.8107C146.011 47.8107 140.144 41.9738 140.113 34.7156C140.113 27.4574 145.98 21.6206 153.208 21.6206C160.436 21.6508 166.303 27.4877 166.303 34.7459Z" fill="#F8F8CB"/>
<path opacity="0.4783" d="M165.819 34.7454C165.819 41.7314 160.164 47.3566 153.208 47.3566C146.252 47.3566 140.597 41.7314 140.597 34.7454C140.597 27.7594 146.252 22.1343 153.208 22.1343C160.164 22.1343 165.819 27.7594 165.819 34.7454Z" fill="#F8F8C9"/>
<path opacity="0.5217" d="M165.366 34.7456C165.366 41.4594 159.922 46.8728 153.208 46.8728C146.525 46.8728 141.081 41.4594 141.081 34.7456C141.081 28.0317 146.525 22.6183 153.208 22.6183C159.922 22.588 165.336 28.0317 165.366 34.7456Z" fill="#F9F9C8"/>
<path opacity="0.5652" d="M164.881 34.7456C164.881 41.1872 159.65 46.3889 153.208 46.3889C146.796 46.3889 141.564 41.1872 141.564 34.7456C141.564 28.3039 146.796 23.1022 153.238 23.1022C159.65 23.0719 164.851 28.3039 164.881 34.7456Z" fill="#F9F9C6"/>
<path opacity="0.6087" d="M164.398 34.7454C164.398 40.9149 159.378 45.9049 153.208 45.9049C147.039 45.9049 142.049 40.9149 142.019 34.7151C142.019 28.5457 147.039 23.5254 153.208 23.5254C159.378 23.5556 164.368 28.5457 164.398 34.7454Z" fill="#FAFAC4"/>
<path opacity="0.6522" d="M163.915 34.7454C163.915 40.6729 159.106 45.421 153.209 45.421C147.312 45.421 142.533 40.6427 142.503 34.7151C142.503 28.7876 147.312 24.0093 153.209 24.0093C159.136 24.0395 163.915 28.8178 163.915 34.7454Z" fill="#FAFAC2"/>
<path opacity="0.6957" d="M163.43 34.7456C163.43 40.4009 158.833 44.9675 153.208 44.9675C147.583 44.9675 142.986 40.4009 142.986 34.7456C142.986 29.0902 147.583 24.5236 153.208 24.5236C158.864 24.4933 163.43 29.0902 163.43 34.7456Z" fill="#FBFBC0"/>
<path opacity="0.7391" d="M162.977 34.7456C162.977 40.1287 158.592 44.4837 153.239 44.4837C147.886 44.4837 143.501 40.1287 143.501 34.7456C143.501 29.3624 147.886 25.0075 153.239 25.0075C158.592 24.9772 162.947 29.3624 162.977 34.7456Z" fill="#FCFCBE"/>
<path opacity="0.7826" d="M162.493 34.7456C162.493 39.8566 158.35 43.9998 153.208 43.9998C148.097 43.9998 143.954 39.8566 143.954 34.7456C143.954 29.6346 148.128 25.4914 153.208 25.4914C158.319 25.4611 162.493 29.6044 162.493 34.7456Z" fill="#FCFCBC"/>
<path opacity="0.8261" d="M162.009 34.7454C162.009 39.6144 158.078 43.5157 153.209 43.5157C148.37 43.5157 144.408 39.5842 144.408 34.7151C144.408 29.8763 148.34 25.9146 153.209 25.9146C158.078 25.9448 162.009 29.8763 162.009 34.7454Z" fill="#FDFDBA"/>
<path opacity="0.8696" d="M161.525 34.7454C161.525 39.3423 157.805 43.0621 153.208 43.0621C148.642 43.0621 144.892 39.3423 144.892 34.7454C144.892 30.1485 148.611 26.4287 153.208 26.4287C157.805 26.4287 161.525 30.1485 161.525 34.7454Z" fill="#FDFDB8"/>
<path opacity="0.913" d="M161.042 34.7456C161.042 39.0703 157.533 42.5784 153.209 42.5784C148.884 42.5784 145.376 39.0703 145.376 34.7456C145.376 30.4209 148.884 26.9128 153.209 26.9128C157.533 26.8825 161.042 30.4209 161.042 34.7456Z" fill="#FEFEB6"/>
<path opacity="0.9565" d="M160.588 34.7156C160.588 38.7681 157.291 42.0646 153.239 42.0646C149.186 42.0646 145.89 38.7681 145.89 34.7156C145.89 30.6631 149.186 27.3667 153.239 27.3667C157.261 27.3667 160.557 30.6631 160.588 34.7156Z" fill="#FEFEB4"/>
<path opacity="0.7" d="M160.104 34.7151C160.104 38.4955 157.019 41.5802 153.239 41.5802C149.459 41.5802 146.374 38.4955 146.374 34.7151C146.374 30.9348 149.459 27.8501 153.239 27.8501C157.019 27.8501 160.074 30.9348 160.104 34.7151Z" fill="#FFFFB2"/>
</g>
<path d="M355.713 34.7152C355.713 39.796 351.63 43.9392 346.549 43.909C341.499 43.909 337.386 39.796 337.386 34.7152C337.416 29.695 341.499 25.5518 346.549 25.5518C351.63 25.5518 355.713 29.695 355.713 34.7152Z" fill="#F2F2D0"/>
<path d="M350.601 30.0278C349.906 34.413 346.125 37.7699 341.529 37.7699C341.317 37.7699 341.045 37.6792 340.772 37.7094C341.801 39.9474 344.039 41.4897 346.67 41.4897C350.238 41.52 353.142 38.6167 353.172 35.0481C353.172 32.9614 352.144 31.177 350.601 30.0278Z" fill="#D6A651"/>
<g opacity="0.7">
<path opacity="0.0434783" d="M363.938 34.7454C363.938 44.3625 356.136 52.1046 346.518 52.1046C336.931 52.1046 329.129 44.3625 329.129 34.7151C329.129 25.0678 336.931 17.3257 346.518 17.3257C356.166 17.3559 363.938 25.098 363.938 34.7454Z" fill="#F3F3DD"/>
<path opacity="0.0869565" d="M363.455 34.7454C363.455 44.0903 355.864 51.6207 346.519 51.6207C337.204 51.6207 329.613 44.0903 329.613 34.7152C329.613 25.34 337.204 17.8096 346.549 17.8096C355.894 17.8096 363.455 25.3702 363.455 34.7454Z" fill="#F3F3DB"/>
<path opacity="0.1304" d="M363.001 34.7459C363.001 43.8489 355.621 51.1676 346.549 51.1676C337.476 51.1676 330.127 43.8489 330.127 34.7156C330.127 25.6126 337.506 18.2939 346.579 18.2939C355.621 18.2939 363.001 25.6429 363.001 34.7459Z" fill="#F4F4D9"/>
<path opacity="0.1739" d="M362.517 34.7454C362.517 43.5762 355.35 50.6832 346.549 50.6832C337.749 50.6832 330.611 43.5762 330.581 34.7152C330.581 25.8843 337.718 18.7773 346.549 18.7773C355.35 18.7773 362.517 25.9146 362.517 34.7454Z" fill="#F4F4D7"/>
<path opacity="0.2174" d="M362.033 34.7454C362.033 43.304 355.107 50.1993 346.549 50.1993C338.02 50.1993 331.095 43.304 331.064 34.7151C331.064 26.1565 337.99 19.231 346.549 19.231C355.107 19.2612 362.033 26.1565 362.033 34.7454Z" fill="#F5F5D5"/>
<path opacity="0.2609" d="M361.549 34.7454C361.549 43.0318 354.836 49.7154 346.519 49.7154C338.263 49.7154 331.519 43.0318 331.519 34.7151C331.519 26.3984 338.232 19.7148 346.519 19.7148C354.836 19.7451 361.549 26.4287 361.549 34.7454Z" fill="#F5F5D3"/>
<path opacity="0.3043" d="M361.065 34.7455C361.065 42.79 354.563 49.2619 346.518 49.2619C338.504 49.2619 332.002 42.79 332.002 34.7455C332.002 26.701 338.504 20.2291 346.549 20.2291C354.563 20.1989 361.065 26.701 361.065 34.7455Z" fill="#F6F6D1"/>
<path opacity="0.3478" d="M360.612 34.7455C360.612 42.5179 354.321 48.7781 346.549 48.7781C338.807 48.7781 332.517 42.5179 332.517 34.7455C332.517 26.9732 338.807 20.713 346.579 20.713C354.291 20.6828 360.582 26.9732 360.612 34.7455Z" fill="#F7F7CF"/>
<path opacity="0.3913" d="M360.129 34.7459C360.129 42.246 354.05 48.2946 346.55 48.2946C339.08 48.2946 333.001 42.246 332.971 34.7157C332.971 27.2155 339.049 21.167 346.55 21.167C354.05 21.167 360.129 27.2457 360.129 34.7459Z" fill="#F7F7CD"/>
<path opacity="0.4348" d="M359.644 34.7459C359.644 41.9738 353.777 47.8107 346.549 47.8107C339.321 47.8107 333.484 41.9738 333.454 34.7156C333.454 27.4574 339.321 21.6206 346.549 21.6206C353.777 21.6508 359.644 27.4877 359.644 34.7459Z" fill="#F8F8CB"/>
<path opacity="0.4783" d="M359.16 34.7454C359.16 41.7314 353.504 47.3566 346.549 47.3566C339.593 47.3566 333.938 41.7314 333.938 34.7454C333.938 27.7594 339.593 22.1343 346.549 22.1343C353.504 22.1343 359.16 27.7594 359.16 34.7454Z" fill="#F8F8C9"/>
<path opacity="0.5217" d="M358.676 34.7456C358.676 41.4594 353.233 46.8728 346.519 46.8728C339.835 46.8728 334.392 41.4594 334.392 34.7456C334.392 28.0317 339.835 22.6183 346.519 22.6183C353.233 22.588 358.676 28.0317 358.676 34.7456Z" fill="#F9F9C8"/>
<path opacity="0.5652" d="M358.222 34.7456C358.222 41.1872 352.99 46.3889 346.549 46.3889C340.137 46.3889 334.905 41.1872 334.905 34.7456C334.905 28.3039 340.137 23.1022 346.579 23.1022C352.99 23.0719 358.192 28.3039 358.222 34.7456Z" fill="#F9F9C6"/>
<path opacity="0.6087" d="M357.739 34.7454C357.739 40.9149 352.719 45.9049 346.549 45.9049C340.38 45.9049 335.359 40.9149 335.359 34.7151C335.359 28.5457 340.38 23.5254 346.549 23.5254C352.719 23.5556 357.709 28.5457 357.739 34.7454Z" fill="#FAFAC4"/>
<path opacity="0.6522" d="M357.255 34.7454C357.255 40.6729 352.447 45.421 346.55 45.421C340.652 45.421 335.844 40.6427 335.844 34.7151C335.844 28.7876 340.652 24.0093 346.55 24.0093C352.447 24.0395 357.255 28.8178 357.255 34.7454Z" fill="#FAFAC2"/>
<path opacity="0.6957" d="M356.771 34.7456C356.771 40.4009 352.174 44.9675 346.549 44.9675C340.924 44.9675 336.327 40.4009 336.327 34.7456C336.327 29.0902 340.924 24.5236 346.549 24.5236C352.205 24.4933 356.771 29.0902 356.771 34.7456Z" fill="#FBFBC0"/>
<path opacity="0.7391" d="M356.287 34.7456C356.287 40.1287 351.902 44.4837 346.549 44.4837C341.165 44.4837 336.811 40.1287 336.811 34.7456C336.811 29.3624 341.165 25.0075 346.549 25.0075C351.932 24.9772 356.287 29.3624 356.287 34.7456Z" fill="#FCFCBE"/>
<path opacity="0.7826" d="M355.834 34.7456C355.834 39.8566 351.66 43.9998 346.549 43.9998C341.438 43.9998 337.295 39.8566 337.295 34.7456C337.295 29.6346 341.438 25.4914 346.579 25.4914C351.66 25.4611 355.803 29.6044 355.834 34.7456Z" fill="#FCFCBC"/>
<path opacity="0.8261" d="M355.349 34.7454C355.349 39.6144 351.418 43.5157 346.549 43.5157C341.71 43.5157 337.748 39.5842 337.748 34.7151C337.748 29.8763 341.68 25.9146 346.549 25.9146C351.387 25.9448 355.349 29.8763 355.349 34.7454Z" fill="#FDFDBA"/>
<path opacity="0.8696" d="M354.866 34.7454C354.866 39.3423 351.146 43.0621 346.549 43.0621C341.952 43.0621 338.232 39.3423 338.232 34.7454C338.232 30.1485 341.952 26.4287 346.549 26.4287C351.146 26.4287 354.866 30.1485 354.866 34.7454Z" fill="#FDFDB8"/>
<path opacity="0.913" d="M354.382 34.7456C354.382 39.0703 350.874 42.5784 346.55 42.5784C342.225 42.5784 338.717 39.0703 338.717 34.7456C338.717 30.4209 342.225 26.9128 346.55 26.9128C350.874 26.8825 354.382 30.4209 354.382 34.7456Z" fill="#FEFEB6"/>
<path opacity="0.9565" d="M353.898 34.7156C353.898 38.7681 350.602 42.0646 346.549 42.0646C342.497 42.0646 339.2 38.7681 339.2 34.7156C339.2 30.6631 342.497 27.3667 346.549 27.3667C350.602 27.3667 353.898 30.6631 353.898 34.7156Z" fill="#FEFEB4"/>
<path opacity="0.7" d="M353.444 34.7151C353.444 38.4955 350.359 41.5802 346.579 41.5802C342.799 41.5802 339.714 38.4955 339.714 34.7151C339.744 30.9348 342.799 27.8501 346.579 27.8501C350.329 27.8501 353.414 30.9348 353.444 34.7151Z" fill="#FFFFB2"/>
</g>
<path d="M473.387 157.107C473.387 162.188 469.304 166.331 464.223 166.301C459.173 166.301 455.06 162.188 455.06 157.107C455.09 152.087 459.173 147.944 464.223 147.944C469.304 147.913 473.387 152.057 473.387 157.107Z" fill="#F2F2D0"/>
<path d="M468.276 152.419C467.581 156.804 463.8 160.161 459.203 160.161C458.992 160.161 458.689 160.07 458.447 160.101C459.476 162.338 461.713 163.881 464.345 163.881C467.913 163.911 470.816 161.008 470.847 157.439C470.847 155.352 469.818 153.568 468.276 152.419Z" fill="#D6A651"/>
<g opacity="0.7">
<path opacity="0.0434783" d="M481.613 157.137C481.613 166.754 473.81 174.496 464.193 174.496C454.606 174.496 446.804 166.754 446.804 157.107C446.804 147.459 454.606 139.717 464.223 139.717C473.841 139.717 481.613 147.49 481.613 157.137Z" fill="#F3F3DD"/>
<path opacity="0.0869565" d="M481.129 157.137C481.129 166.482 473.538 174.012 464.193 174.012C454.878 174.012 447.287 166.482 447.287 157.107C447.287 147.732 454.878 140.201 464.223 140.201C473.568 140.201 481.129 147.762 481.129 157.137Z" fill="#F3F3DB"/>
<path opacity="0.1304" d="M480.675 157.137C480.675 166.24 473.296 173.559 464.223 173.559C455.151 173.559 447.802 166.24 447.771 157.107C447.771 148.004 455.151 140.685 464.223 140.685C473.296 140.685 480.675 148.034 480.675 157.137Z" fill="#F4F4D9"/>
<path opacity="0.1739" d="M480.191 157.137C480.191 165.968 473.024 173.075 464.223 173.075C455.422 173.075 448.285 165.968 448.255 157.107C448.255 148.276 455.422 141.169 464.223 141.169C473.024 141.169 480.191 148.276 480.191 157.137Z" fill="#F4F4D7"/>
<path opacity="0.2174" d="M479.707 157.137C479.707 165.696 472.781 172.591 464.222 172.591C455.694 172.591 448.769 165.696 448.738 157.107C448.738 148.548 455.694 141.653 464.222 141.653C472.781 141.623 479.707 148.548 479.707 157.137Z" fill="#F5F5D5"/>
<path opacity="0.2609" d="M479.223 157.137C479.223 165.423 472.509 172.107 464.193 172.107C455.906 172.107 449.192 165.423 449.192 157.107C449.192 148.79 455.906 142.106 464.193 142.106C472.509 142.106 479.223 148.82 479.223 157.137Z" fill="#F5F5D3"/>
<path opacity="0.3043" d="M478.74 157.137C478.74 165.182 472.238 171.654 464.193 171.654C456.179 171.654 449.677 165.182 449.677 157.137C449.677 149.093 456.179 142.621 464.223 142.621C472.238 142.59 478.74 149.093 478.74 157.137Z" fill="#F6F6D1"/>
<path opacity="0.3478" d="M478.286 157.137C478.286 164.909 471.995 171.17 464.223 171.17C456.481 171.17 450.19 164.909 450.16 157.107C450.16 149.334 456.451 143.074 464.223 143.074C471.965 143.074 478.255 149.334 478.286 157.137Z" fill="#F7F7CF"/>
<path opacity="0.3913" d="M477.802 157.137C477.802 164.637 471.724 170.686 464.223 170.686C456.754 170.686 450.675 164.637 450.645 157.107C450.645 149.607 456.723 143.558 464.223 143.558C471.724 143.558 477.802 149.607 477.802 157.137Z" fill="#F7F7CD"/>
<path opacity="0.4348" d="M477.318 157.137C477.318 164.365 471.451 170.202 464.223 170.202C456.995 170.202 451.158 164.365 451.128 157.107C451.128 149.879 456.995 144.012 464.223 144.012C471.451 144.012 477.318 149.879 477.318 157.137Z" fill="#F8F8CB"/>
<path opacity="0.4783" d="M476.834 157.137C476.834 164.123 471.178 169.748 464.222 169.748C457.267 169.748 451.611 164.123 451.611 157.137C451.611 150.151 457.267 144.526 464.222 144.526C471.178 144.496 476.834 150.151 476.834 157.137Z" fill="#F8F8C9"/>
<path opacity="0.5217" d="M476.38 157.137C476.38 163.851 470.937 169.264 464.223 169.264C457.539 169.264 452.096 163.851 452.096 157.137C452.096 150.423 457.539 145.01 464.253 145.01C470.937 144.98 476.35 150.393 476.38 157.137Z" fill="#F9F9C8"/>
<path opacity="0.5652" d="M475.897 157.107C475.897 163.548 470.665 168.75 464.223 168.75C457.782 168.75 452.58 163.548 452.55 157.076C452.55 150.635 457.782 145.433 464.223 145.433C470.665 145.463 475.867 150.665 475.897 157.107Z" fill="#F9F9C6"/>
<path opacity="0.6087" d="M475.413 157.107C475.413 163.276 470.392 168.266 464.223 168.266C458.053 168.266 453.063 163.276 453.033 157.077C453.033 150.907 458.053 145.917 464.223 145.917C470.392 145.947 475.413 150.937 475.413 157.107Z" fill="#FAFAC4"/>
<path opacity="0.6522" d="M474.929 157.107C474.929 163.034 470.121 167.813 464.223 167.813C458.326 167.813 453.548 163.034 453.518 157.107C453.518 151.179 458.326 146.401 464.223 146.401C470.121 146.401 474.929 151.209 474.929 157.107Z" fill="#FAFAC2"/>
<path opacity="0.6957" d="M474.445 157.107C474.445 162.762 469.848 167.329 464.223 167.329C458.568 167.329 454.001 162.762 454.001 157.107C454.001 151.451 458.598 146.885 464.223 146.885C469.878 146.885 474.445 151.451 474.445 157.107Z" fill="#FBFBC0"/>
<path opacity="0.7391" d="M473.992 157.107C473.992 162.49 469.607 166.845 464.254 166.845C458.871 166.845 454.516 162.49 454.516 157.107C454.516 151.724 458.871 147.369 464.254 147.369C469.607 147.369 473.962 151.724 473.992 157.107Z" fill="#FCFCBE"/>
<path opacity="0.7826" d="M473.507 157.107C473.507 162.218 469.334 166.361 464.223 166.361C459.112 166.361 454.969 162.218 454.969 157.107C454.969 151.996 459.112 147.853 464.253 147.853C469.334 147.853 473.507 151.996 473.507 157.107Z" fill="#FCFCBC"/>
<path opacity="0.8261" d="M473.024 157.107C473.024 161.976 469.092 165.877 464.223 165.877C459.385 165.877 455.423 161.946 455.423 157.076C455.423 152.238 459.354 148.276 464.223 148.276C469.062 148.306 473.024 152.268 473.024 157.107Z" fill="#FDFDBA"/>
<path opacity="0.8696" d="M472.54 157.107C472.54 161.704 468.82 165.423 464.223 165.423C459.626 165.423 455.906 161.704 455.906 157.107C455.906 152.51 459.626 148.79 464.223 148.79C468.82 148.79 472.54 152.51 472.54 157.107Z" fill="#FDFDB8"/>
<path opacity="0.913" d="M472.056 157.107C472.056 161.431 468.548 164.94 464.223 164.94C459.899 164.94 456.391 161.431 456.391 157.107C456.391 152.782 459.899 149.274 464.223 149.274C468.548 149.274 472.056 152.782 472.056 157.107Z" fill="#FEFEB6"/>
<path opacity="0.9565" d="M471.602 157.107C471.602 161.159 468.306 164.456 464.253 164.456C460.201 164.456 456.904 161.159 456.904 157.107C456.904 153.054 460.201 149.758 464.253 149.758C468.275 149.758 471.572 153.054 471.602 157.107Z" fill="#FEFEB4"/>
<path opacity="0.7" d="M471.119 157.107C471.089 160.887 468.034 163.972 464.254 163.972C460.443 163.972 457.389 160.887 457.389 157.107C457.389 153.326 460.473 150.242 464.254 150.242C468.034 150.242 471.089 153.326 471.119 157.107Z" fill="#FFFFB2"/>
</g>
<path d="M44.9412 157.107C44.9412 162.188 40.8585 166.331 35.7777 166.301C30.7272 166.301 26.584 162.188 26.584 157.107C26.6142 152.087 30.697 147.944 35.7475 147.944C40.8585 147.913 44.9412 152.057 44.9412 157.107Z" fill="#F2F2D0"/>
<path d="M39.8308 152.419C39.1352 156.804 35.3549 160.161 30.758 160.161C30.5463 160.161 30.2741 160.07 30.002 160.101C31.0302 162.338 33.2681 163.881 35.8992 163.881C39.4679 163.911 42.3712 161.008 42.4014 157.439C42.4014 155.352 41.3429 153.568 39.8308 152.419Z" fill="#D6A651"/>
<g opacity="0.7">
<path opacity="0.0434783" d="M53.1676 157.137C53.1676 166.754 45.365 174.496 35.7479 174.496C26.161 174.496 18.3886 166.754 18.3584 157.107C18.3584 147.459 26.161 139.717 35.7479 139.717C45.365 139.717 53.1676 147.49 53.1676 157.137Z" fill="#F3F3DD"/>
<path opacity="0.0869565" d="M52.6832 157.137C52.6832 166.482 45.0923 174.012 35.7474 174.012C26.4327 174.012 18.8418 166.482 18.8418 157.107C18.8418 147.732 26.4327 140.201 35.7776 140.201C45.1226 140.201 52.6832 147.762 52.6832 157.137Z" fill="#F3F3DB"/>
<path opacity="0.1304" d="M52.1998 157.137C52.1998 166.24 44.8206 173.559 35.7479 173.559C26.7054 173.559 19.3262 166.24 19.3262 157.107C19.3262 148.004 26.7054 140.685 35.7781 140.685C44.8509 140.685 52.1998 148.034 52.1998 157.137Z" fill="#F4F4D9"/>
<path opacity="0.1739" d="M51.7457 157.137C51.7457 165.968 44.6085 173.075 35.7776 173.075C26.9771 173.075 19.8398 165.968 19.8096 157.107C19.8096 148.276 26.9468 141.169 35.7776 141.169C44.5782 141.169 51.7155 148.276 51.7457 157.137Z" fill="#F4F4D7"/>
<path opacity="0.2174" d="M51.2613 157.137C51.2613 165.696 44.3358 172.591 35.7772 172.591C27.2488 172.591 20.3232 165.696 20.293 157.107C20.293 148.548 27.2185 141.653 35.7772 141.653C44.3055 141.623 51.2613 148.548 51.2613 157.137Z" fill="#F5F5D5"/>
<path opacity="0.2609" d="M50.7779 157.137C50.7779 165.423 44.0641 172.107 35.7474 172.107C27.4912 172.107 20.7773 165.423 20.7471 157.107C20.7471 148.79 27.4609 142.106 35.7474 142.106C44.0641 142.106 50.7779 148.82 50.7779 157.137Z" fill="#F5F5D3"/>
<path opacity="0.3043" d="M50.2945 157.137C50.2945 165.182 43.7924 171.654 35.7479 171.654C27.7336 171.654 21.2314 165.182 21.2314 157.137C21.2314 149.093 27.7336 142.621 35.7781 142.621C43.7924 142.59 50.2945 149.093 50.2945 157.137Z" fill="#F6F6D1"/>
<path opacity="0.3478" d="M49.8102 157.137C49.8102 164.909 43.5197 171.17 35.7474 171.17C28.0053 171.17 21.7148 164.909 21.7148 157.107C21.7148 149.334 28.0053 143.074 35.7776 143.074C43.5197 143.074 49.8102 149.334 49.8102 157.137Z" fill="#F7F7CF"/>
<path opacity="0.3913" d="M49.357 157.137C49.357 164.637 43.2783 170.686 35.7781 170.686C28.3082 170.686 22.2295 164.637 22.1992 157.107C22.1992 149.607 28.278 143.558 35.7781 143.558C43.2783 143.558 49.3268 149.607 49.357 157.137Z" fill="#F7F7CD"/>
<path opacity="0.4348" d="M48.8727 157.137C48.8727 164.365 43.0056 170.202 35.7776 170.202C28.5497 170.202 22.7129 164.365 22.6826 157.107C22.6826 149.879 28.5497 144.012 35.7776 144.012C43.0056 144.012 48.8424 149.879 48.8727 157.137Z" fill="#F8F8CB"/>
<path opacity="0.4783" d="M48.3883 157.137C48.3883 164.123 42.7329 169.748 35.7772 169.748C28.8214 169.748 23.1963 164.123 23.166 157.137C23.166 150.151 28.8214 144.526 35.7772 144.526C42.7329 144.496 48.3883 150.151 48.3883 157.137Z" fill="#F8F8C9"/>
<path opacity="0.5217" d="M47.9049 157.137C47.9049 163.851 42.4612 169.264 35.7474 169.264C29.0638 169.264 23.6201 163.851 23.6201 157.137C23.6201 150.423 29.0638 145.01 35.7474 145.01C42.4612 144.98 47.9049 150.393 47.9049 157.137Z" fill="#F9F9C8"/>
<path opacity="0.5652" d="M47.4215 157.107C47.4215 163.548 42.1895 168.75 35.7479 168.75C29.3365 168.75 24.1045 163.548 24.1045 157.076C24.1045 150.635 29.3365 145.433 35.7781 145.433C42.2198 145.463 47.4215 150.665 47.4215 157.107Z" fill="#F9F9C6"/>
<path opacity="0.6087" d="M46.9674 157.107C46.9674 163.276 41.9471 168.266 35.7776 168.266C29.6082 168.266 24.6181 163.276 24.5879 157.077C24.5879 150.907 29.6082 145.917 35.7776 145.917C41.9471 145.947 46.9371 150.937 46.9674 157.107Z" fill="#FAFAC4"/>
<path opacity="0.6522" d="M46.484 157.107C46.484 163.034 41.6754 167.813 35.7781 167.813C29.8808 167.813 25.1025 163.034 25.0723 157.107C25.0723 151.179 29.8808 146.401 35.7781 146.401C41.6754 146.401 46.4538 151.209 46.484 157.107Z" fill="#FAFAC2"/>
<path opacity="0.6957" d="M45.9996 157.107C45.9996 162.762 41.4028 167.329 35.7776 167.329C30.1525 167.329 25.5859 162.762 25.5557 157.107C25.5557 151.451 30.1525 146.885 35.7776 146.885C41.4028 146.885 45.9996 151.451 45.9996 157.107Z" fill="#FBFBC0"/>
<path opacity="0.7391" d="M45.5153 157.107C45.5153 162.49 41.1603 166.845 35.7772 166.845C30.394 166.845 26.0391 162.49 26.0391 157.107C26.0391 151.724 30.394 147.369 35.7772 147.369C41.1603 147.369 45.5153 151.724 45.5153 157.107Z" fill="#FCFCBE"/>
<path opacity="0.7826" d="M45.0318 157.107C45.0318 162.218 40.8886 166.361 35.7474 166.361C30.6364 166.361 26.4932 162.218 26.4932 157.107C26.4932 151.996 30.6364 147.853 35.7474 147.853C40.8886 147.853 45.0318 151.996 45.0318 157.107Z" fill="#FCFCBC"/>
<path opacity="0.8261" d="M44.5778 157.107C44.5778 161.976 40.6462 165.877 35.7772 165.877C30.9384 165.877 27.0068 161.946 27.0068 157.076C27.0068 152.238 30.9384 148.276 35.8074 148.276C40.616 148.306 44.5475 152.268 44.5778 157.107Z" fill="#FDFDBA"/>
<path opacity="0.8696" d="M44.0943 157.107C44.0943 161.704 40.3745 165.423 35.7776 165.423C31.211 165.423 27.4609 161.704 27.4609 157.107C27.4609 152.51 31.1808 148.79 35.7776 148.79C40.3745 148.79 44.0943 152.51 44.0943 157.107Z" fill="#FDFDB8"/>
<path opacity="0.913" d="M43.6109 157.107C43.6109 161.431 40.1028 164.94 35.7781 164.94C31.4534 164.94 27.9453 161.431 27.9453 157.107C27.9453 152.782 31.4534 149.274 35.7781 149.274C40.1028 149.274 43.6109 152.782 43.6109 157.107Z" fill="#FEFEB6"/>
<path opacity="0.9565" d="M43.1266 157.107C43.1266 161.159 39.8302 164.456 35.7777 164.456C31.7251 164.456 28.4287 161.159 28.4287 157.107C28.4287 153.054 31.7251 149.758 35.7777 149.758C39.8302 149.758 43.1266 153.054 43.1266 157.107Z" fill="#FEFEB4"/>
<path opacity="0.7" d="M42.6422 157.107C42.6422 160.887 39.5575 163.972 35.7772 163.972C31.9968 163.972 28.9121 160.887 28.9121 157.107C28.9121 153.326 31.9968 150.242 35.7772 150.242C39.5575 150.242 42.6422 153.326 42.6422 157.107Z" fill="#FFFFB2"/>
</g>
<path d="M471.723 338.411C471.723 343.492 467.641 347.635 462.56 347.605C457.509 347.605 453.396 343.492 453.396 338.411C453.396 333.391 457.509 329.248 462.56 329.248C467.641 329.217 471.723 333.361 471.723 338.411Z" fill="#F2F2D0"/>
<path d="M466.613 333.724C465.948 338.079 462.137 341.435 457.54 341.435C457.329 341.435 457.056 341.345 456.784 341.375C457.812 343.613 460.081 345.155 462.681 345.155C466.25 345.186 469.153 342.282 469.184 338.714C469.184 336.627 468.155 334.873 466.613 333.724Z" fill="#D6A651"/>
<g opacity="0.7">
<path opacity="0.0434783" d="M479.95 338.442C479.95 348.059 472.147 355.801 462.53 355.801C452.943 355.801 445.141 348.059 445.141 338.411C445.141 328.764 452.943 321.022 462.53 321.022C472.147 321.022 479.95 328.794 479.95 338.442Z" fill="#F3F3DD"/>
<path opacity="0.0869565" d="M479.465 338.441C479.465 347.786 471.875 355.317 462.53 355.317C453.215 355.317 445.624 347.786 445.624 338.411C445.624 329.036 453.215 321.505 462.53 321.505C471.905 321.505 479.465 329.036 479.465 338.441Z" fill="#F3F3DB"/>
<path opacity="0.1304" d="M479.012 338.441C479.012 347.544 471.633 354.863 462.56 354.863C453.518 354.863 446.139 347.544 446.139 338.411C446.139 329.308 453.518 321.989 462.591 321.989C471.633 321.989 478.982 329.308 479.012 338.441Z" fill="#F4F4D9"/>
<path opacity="0.1739" d="M478.528 338.441C478.528 347.272 471.391 354.379 462.56 354.379C453.759 354.379 446.622 347.272 446.592 338.411C446.592 329.58 453.759 322.473 462.56 322.473C471.36 322.443 478.528 329.58 478.528 338.441Z" fill="#F4F4D7"/>
<path opacity="0.2174" d="M478.044 338.441C478.044 347 471.119 353.895 462.56 353.895C454.032 353.895 447.106 347 447.076 338.411C447.076 329.852 454.002 322.927 462.56 322.927C471.119 322.927 478.044 329.852 478.044 338.441Z" fill="#F5F5D5"/>
<path opacity="0.2609" d="M477.56 338.411C477.56 346.697 470.846 353.381 462.53 353.381C454.273 353.381 447.529 346.697 447.529 338.381C447.529 330.064 454.243 323.38 462.53 323.38C470.846 323.411 477.56 330.094 477.56 338.411Z" fill="#F5F5D3"/>
<path opacity="0.3043" d="M477.077 338.411C477.077 346.455 470.575 352.927 462.53 352.927C454.516 352.927 448.014 346.455 448.014 338.411C448.014 330.366 454.516 323.895 462.53 323.895C470.575 323.895 477.077 330.366 477.077 338.411Z" fill="#F6F6D1"/>
<path opacity="0.3478" d="M476.623 338.411C476.623 346.184 470.332 352.444 462.56 352.444C454.818 352.444 448.527 346.184 448.527 338.381C448.527 330.609 454.818 324.349 462.59 324.349C470.302 324.349 476.592 330.639 476.623 338.411Z" fill="#F7F7CF"/>
<path opacity="0.3913" d="M476.139 338.411C476.139 345.911 470.06 351.96 462.56 351.96C455.09 351.96 449.012 345.911 448.981 338.381C448.981 330.881 455.06 324.832 462.56 324.832C470.06 324.832 476.109 330.911 476.139 338.411Z" fill="#F7F7CD"/>
<path opacity="0.4348" d="M475.655 338.411C475.655 345.639 469.788 351.476 462.56 351.476C455.362 351.476 449.495 345.639 449.465 338.381C449.465 331.122 455.332 325.286 462.56 325.286C469.788 325.316 475.655 331.183 475.655 338.411Z" fill="#F8F8CB"/>
<path opacity="0.4783" d="M475.171 338.411C475.171 345.367 469.515 351.022 462.559 351.022C455.604 351.022 449.948 345.397 449.948 338.411C449.948 331.425 455.604 325.8 462.559 325.8C469.515 325.8 475.171 331.425 475.171 338.411Z" fill="#F8F8C9"/>
<path opacity="0.5217" d="M474.687 338.411C474.687 345.125 469.243 350.538 462.53 350.538C455.846 350.538 450.402 345.125 450.402 338.411C450.402 331.697 455.846 326.284 462.53 326.284C469.243 326.284 474.687 331.697 474.687 338.411Z" fill="#F9F9C8"/>
<path opacity="0.5652" d="M474.233 338.411C474.233 344.853 469.001 350.054 462.559 350.054C456.148 350.054 450.916 344.853 450.916 338.381C450.916 331.939 456.148 326.737 462.59 326.737C469.001 326.737 474.203 331.969 474.233 338.411Z" fill="#F9F9C6"/>
<path opacity="0.6087" d="M473.75 338.411C473.75 344.581 468.729 349.571 462.56 349.571C456.39 349.571 451.4 344.581 451.37 338.381C451.37 332.212 456.39 327.222 462.56 327.222C468.729 327.222 473.75 332.242 473.75 338.411Z" fill="#FAFAC4"/>
<path opacity="0.6522" d="M473.266 338.411C473.266 344.308 468.458 349.117 462.56 349.117C456.663 349.117 451.885 344.338 451.854 338.411C451.854 332.483 456.663 327.705 462.56 327.705C468.458 327.705 473.266 332.483 473.266 338.411Z" fill="#FAFAC2"/>
<path opacity="0.6957" d="M472.782 338.411C472.782 344.066 468.185 348.633 462.56 348.633C456.935 348.633 452.338 344.066 452.338 338.411C452.338 332.756 456.935 328.189 462.56 328.189C468.215 328.189 472.782 332.756 472.782 338.411Z" fill="#FBFBC0"/>
<path opacity="0.7391" d="M472.297 338.411C472.297 343.794 467.943 348.149 462.559 348.149C457.206 348.149 452.821 343.794 452.821 338.411C452.821 333.028 457.206 328.673 462.559 328.673C467.943 328.673 472.297 333.028 472.297 338.411Z" fill="#FCFCBE"/>
<path opacity="0.7826" d="M471.844 338.411C471.844 343.522 467.701 347.665 462.56 347.665C457.449 347.665 453.306 343.522 453.306 338.411C453.306 333.3 457.479 329.157 462.56 329.157C467.671 329.127 471.814 333.3 471.844 338.411Z" fill="#FCFCBC"/>
<path opacity="0.8261" d="M471.361 338.411C471.361 343.25 467.429 347.181 462.56 347.181C457.722 347.181 453.76 343.25 453.76 338.381C453.76 333.542 457.691 329.58 462.56 329.58C467.399 329.61 471.361 333.542 471.361 338.411Z" fill="#FDFDBA"/>
<path opacity="0.8696" d="M470.877 338.411C470.877 343.008 467.157 346.728 462.56 346.728C457.993 346.728 454.243 343.008 454.243 338.411C454.243 333.815 457.963 330.095 462.56 330.095C467.157 330.095 470.877 333.815 470.877 338.411Z" fill="#FDFDB8"/>
<path opacity="0.913" d="M470.393 338.411C470.393 342.736 466.885 346.244 462.56 346.244C458.236 346.244 454.728 342.736 454.728 338.411C454.728 334.086 458.236 330.578 462.56 330.578C466.885 330.578 470.393 334.086 470.393 338.411Z" fill="#FEFEB6"/>
<path opacity="0.9565" d="M469.909 338.411C469.909 342.464 466.612 345.76 462.56 345.76C458.507 345.76 455.211 342.464 455.211 338.411C455.211 334.359 458.507 331.062 462.56 331.062C466.612 331.032 469.909 334.359 469.909 338.411Z" fill="#FEFEB4"/>
<path opacity="0.7" d="M469.456 338.411C469.425 342.191 466.371 345.276 462.591 345.276C458.81 345.276 455.726 342.191 455.726 338.411C455.726 334.63 458.81 331.546 462.591 331.546C466.371 331.515 469.425 334.6 469.456 338.411Z" fill="#FFFFB2"/>
</g>
<path d="M44.9412 338.411C44.9412 343.492 40.8585 347.635 35.7777 347.605C30.7272 347.605 26.584 343.492 26.584 338.411C26.6142 333.391 30.697 329.248 35.7475 329.248C40.8585 329.217 44.9412 333.361 44.9412 338.411Z" fill="#F2F2D0"/>
<path d="M39.8308 333.724C39.1352 338.079 35.3549 341.435 30.758 341.435C30.5463 341.435 30.2741 341.345 30.002 341.375C31.0302 343.613 33.2681 345.155 35.8992 345.155C39.4679 345.186 42.3712 342.282 42.4014 338.714C42.4014 336.627 41.3429 334.873 39.8308 333.724Z" fill="#D6A651"/>
<g opacity="0.7">
<path opacity="0.0434783" d="M53.1676 338.442C53.1676 348.059 45.365 355.801 35.7479 355.801C26.161 355.801 18.3886 348.059 18.3584 338.411C18.3584 328.764 26.161 321.022 35.7479 321.022C45.365 321.022 53.1676 328.794 53.1676 338.442Z" fill="#F3F3DD"/>
<path opacity="0.0869565" d="M52.6832 338.441C52.6832 347.786 45.0923 355.317 35.7474 355.317C26.4327 355.317 18.8418 347.786 18.8418 338.411C18.8418 329.036 26.4327 321.505 35.7776 321.505C45.1226 321.505 52.6832 329.036 52.6832 338.441Z" fill="#F3F3DB"/>
<path opacity="0.1304" d="M52.1998 338.441C52.1998 347.544 44.8206 354.863 35.7479 354.863C26.7054 354.863 19.3262 347.544 19.3262 338.411C19.3262 329.308 26.7054 321.989 35.7781 321.989C44.8509 321.989 52.1998 329.308 52.1998 338.441Z" fill="#F4F4D9"/>
<path opacity="0.1739" d="M51.7457 338.441C51.7457 347.272 44.6085 354.379 35.7776 354.379C26.9771 354.379 19.8398 347.272 19.8096 338.411C19.8096 329.58 26.9468 322.473 35.7776 322.473C44.5782 322.443 51.7155 329.58 51.7457 338.441Z" fill="#F4F4D7"/>
<path opacity="0.2174" d="M51.2613 338.441C51.2613 347 44.3358 353.895 35.7772 353.895C27.2488 353.895 20.3232 347 20.293 338.411C20.293 329.852 27.2185 322.927 35.7772 322.927C44.3055 322.927 51.2613 329.852 51.2613 338.441Z" fill="#F5F5D5"/>
<path opacity="0.2609" d="M50.7779 338.411C50.7779 346.697 44.0641 353.381 35.7474 353.381C27.4912 353.381 20.7773 346.697 20.7471 338.381C20.7471 330.064 27.4609 323.38 35.7474 323.38C44.0641 323.411 50.7779 330.094 50.7779 338.411Z" fill="#F5F5D3"/>
<path opacity="0.3043" d="M50.2945 338.411C50.2945 346.455 43.7924 352.927 35.7479 352.927C27.7336 352.927 21.2314 346.455 21.2314 338.411C21.2314 330.366 27.7336 323.895 35.7781 323.895C43.7924 323.895 50.2945 330.366 50.2945 338.411Z" fill="#F6F6D1"/>
<path opacity="0.3478" d="M49.8102 338.411C49.8102 346.184 43.5197 352.444 35.7474 352.444C28.0053 352.444 21.7148 346.184 21.7148 338.381C21.7148 330.609 28.0053 324.349 35.7776 324.349C43.5197 324.349 49.8102 330.639 49.8102 338.411Z" fill="#F7F7CF"/>
<path opacity="0.3913" d="M49.357 338.411C49.357 345.911 43.2783 351.96 35.7781 351.96C28.3082 351.96 22.2295 345.911 22.1992 338.381C22.1992 330.881 28.278 324.832 35.7781 324.832C43.2783 324.832 49.3268 330.911 49.357 338.411Z" fill="#F7F7CD"/>
<path opacity="0.4348" d="M48.8727 338.411C48.8727 345.639 43.0056 351.476 35.7776 351.476C28.5497 351.476 22.7129 345.639 22.6826 338.381C22.6826 331.122 28.5497 325.286 35.7776 325.286C43.0056 325.316 48.8424 331.183 48.8727 338.411Z" fill="#F8F8CB"/>
<path opacity="0.4783" d="M48.3883 338.411C48.3883 345.367 42.7329 351.022 35.7772 351.022C28.8214 351.022 23.1963 345.397 23.166 338.411C23.166 331.425 28.8214 325.8 35.7772 325.8C42.7329 325.8 48.3883 331.425 48.3883 338.411Z" fill="#F8F8C9"/>
<path opacity="0.5217" d="M47.9049 338.411C47.9049 345.125 42.4612 350.538 35.7474 350.538C29.0638 350.538 23.6201 345.125 23.6201 338.411C23.6201 331.697 29.0638 326.284 35.7474 326.284C42.4612 326.284 47.9049 331.697 47.9049 338.411Z" fill="#F9F9C8"/>
<path opacity="0.5652" d="M47.4215 338.411C47.4215 344.853 42.1895 350.054 35.7479 350.054C29.3365 350.054 24.1045 344.853 24.1045 338.381C24.1045 331.939 29.3365 326.737 35.7781 326.737C42.2198 326.737 47.4215 331.969 47.4215 338.411Z" fill="#F9F9C6"/>
<path opacity="0.6087" d="M46.9674 338.411C46.9674 344.581 41.9471 349.571 35.7776 349.571C29.6082 349.571 24.6181 344.581 24.5879 338.381C24.5879 332.212 29.6082 327.222 35.7776 327.222C41.9471 327.222 46.9371 332.242 46.9674 338.411Z" fill="#FAFAC4"/>
<path opacity="0.6522" d="M46.484 338.411C46.484 344.308 41.6754 349.117 35.7781 349.117C29.8808 349.117 25.1025 344.338 25.0723 338.411C25.0723 332.483 29.8808 327.705 35.7781 327.705C41.6754 327.705 46.4538 332.483 46.484 338.411Z" fill="#FAFAC2"/>
<path opacity="0.6957" d="M45.9996 338.411C45.9996 344.066 41.4028 348.633 35.7776 348.633C30.1525 348.633 25.5859 344.066 25.5557 338.411C25.5557 332.756 30.1525 328.189 35.7776 328.189C41.4028 328.189 45.9996 332.756 45.9996 338.411Z" fill="#FBFBC0"/>
<path opacity="0.7391" d="M45.5153 338.411C45.5153 343.794 41.1603 348.149 35.7772 348.149C30.394 348.149 26.0391 343.794 26.0391 338.411C26.0391 333.028 30.394 328.673 35.7772 328.673C41.1603 328.673 45.5153 333.028 45.5153 338.411Z" fill="#FCFCBE"/>
<path opacity="0.7826" d="M45.0318 338.411C45.0318 343.522 40.8886 347.665 35.7474 347.665C30.6364 347.665 26.4932 343.522 26.4932 338.411C26.4932 333.3 30.6364 329.157 35.7474 329.157C40.8886 329.127 45.0318 333.3 45.0318 338.411Z" fill="#FCFCBC"/>
<path opacity="0.8261" d="M44.5778 338.411C44.5778 343.25 40.6462 347.181 35.7772 347.181C30.9384 347.181 27.0068 343.25 27.0068 338.381C27.0068 333.542 30.9384 329.58 35.8074 329.58C40.616 329.61 44.5475 333.542 44.5778 338.411Z" fill="#FDFDBA"/>
<path opacity="0.8696" d="M44.0943 338.411C44.0943 343.008 40.3745 346.728 35.7776 346.728C31.211 346.728 27.4609 343.008 27.4609 338.411C27.4609 333.815 31.1808 330.095 35.7776 330.095C40.3745 330.095 44.0943 333.815 44.0943 338.411Z" fill="#FDFDB8"/>
<path opacity="0.913" d="M43.6109 338.411C43.6109 342.736 40.1028 346.244 35.7781 346.244C31.4534 346.244 27.9453 342.736 27.9453 338.411C27.9453 334.086 31.4534 330.578 35.7781 330.578C40.1028 330.578 43.6109 334.086 43.6109 338.411Z" fill="#FEFEB6"/>
<path opacity="0.9565" d="M43.1266 338.411C43.1266 342.464 39.8302 345.76 35.7777 345.76C31.7251 345.76 28.4287 342.464 28.4287 338.411C28.4287 334.359 31.7251 331.062 35.7777 331.062C39.8302 331.032 43.1266 334.359 43.1266 338.411Z" fill="#FEFEB4"/>
<path opacity="0.7" d="M42.6422 338.411C42.6422 342.191 39.5575 345.276 35.7772 345.276C31.9968 345.276 28.9121 342.191 28.9121 338.411C28.9121 334.63 31.9968 331.546 35.7772 331.546C39.5575 331.515 42.6422 334.6 42.6422 338.411Z" fill="#FFFFB2"/>
</g>
<path d="M349.09 460.561C349.09 465.641 345.007 469.785 339.926 469.754C334.876 469.754 330.763 465.641 330.763 460.561C330.793 455.54 334.876 451.397 339.926 451.397C344.977 451.367 349.09 455.51 349.09 460.561Z" fill="#F2F2D0"/>
<path d="M343.978 455.873C343.283 460.228 339.502 463.615 334.905 463.615C334.664 463.615 334.422 463.524 334.149 463.555C335.178 465.793 337.416 467.335 340.047 467.335C343.615 467.365 346.519 464.462 346.549 460.893C346.549 458.807 345.49 457.022 343.978 455.873Z" fill="#D6A651"/>
<g opacity="0.7">
<path opacity="0.0434783" d="M357.315 460.591C357.315 470.208 349.512 477.95 339.895 477.95C330.308 477.95 322.536 470.208 322.506 460.56C322.506 450.913 330.308 443.171 339.895 443.171C349.512 443.201 357.315 450.943 357.315 460.591Z" fill="#F3F3DD"/>
<path opacity="0.0869565" d="M356.832 460.591C356.832 469.936 349.241 477.466 339.896 477.466C330.581 477.466 322.99 469.936 322.99 460.56C322.99 451.185 330.581 443.655 339.926 443.655C349.241 443.655 356.832 451.215 356.832 460.591Z" fill="#F3F3DB"/>
<path opacity="0.1304" d="M356.347 460.59C356.347 469.693 348.968 477.012 339.895 477.012C330.853 477.012 323.474 469.693 323.474 460.59C323.474 451.487 330.853 444.169 339.926 444.169C348.968 444.138 356.347 451.487 356.347 460.59Z" fill="#F4F4D9"/>
<path opacity="0.1739" d="M355.864 460.591C355.864 469.421 348.727 476.528 339.896 476.528C331.095 476.528 323.958 469.421 323.928 460.56C323.928 451.73 331.065 444.623 339.896 444.623C348.727 444.623 355.864 451.73 355.864 460.591Z" fill="#F4F4D7"/>
<path opacity="0.2174" d="M355.38 460.591C355.38 469.149 348.454 476.045 339.895 476.045C331.367 476.045 324.441 469.149 324.411 460.56C324.411 451.971 331.337 445.076 339.895 445.076C348.454 445.106 355.38 452.002 355.38 460.591Z" fill="#F5F5D5"/>
<path opacity="0.2609" d="M354.926 460.591C354.926 468.877 348.212 475.561 339.896 475.561C331.64 475.561 324.926 468.877 324.896 460.56C324.896 452.244 331.609 445.56 339.896 445.56C348.182 445.56 354.896 452.274 354.926 460.591Z" fill="#F5F5D3"/>
<path opacity="0.3043" d="M354.442 460.591C354.442 468.635 347.94 475.107 339.895 475.107C331.881 475.107 325.379 468.635 325.379 460.591C325.379 452.546 331.881 446.074 339.895 446.074C347.94 446.044 354.442 452.546 354.442 460.591Z" fill="#F6F6D1"/>
<path opacity="0.3478" d="M353.959 460.591C353.959 468.363 347.668 474.623 339.896 474.623C332.154 474.623 325.863 468.363 325.863 460.591C325.863 452.818 332.154 446.558 339.926 446.558C347.668 446.528 353.959 452.788 353.959 460.591Z" fill="#F7F7CF"/>
<path opacity="0.3913" d="M353.475 460.591C353.475 468.091 347.396 474.139 339.896 474.139C332.426 474.139 326.348 468.091 326.317 460.56C326.317 453.06 332.396 447.012 339.896 447.012C347.396 447.012 353.475 453.06 353.475 460.591Z" fill="#F7F7CD"/>
<path opacity="0.4348" d="M352.991 460.591C352.991 467.819 347.124 473.655 339.896 473.655C332.698 473.655 326.831 467.819 326.801 460.56C326.801 453.302 332.668 447.465 339.896 447.465C347.124 447.496 352.991 453.332 352.991 460.591Z" fill="#F8F8CB"/>
<path opacity="0.4783" d="M352.537 460.591C352.537 467.577 346.881 473.202 339.926 473.202C332.97 473.202 327.345 467.577 327.314 460.591C327.314 453.605 332.97 447.98 339.926 447.98C346.881 447.949 352.506 453.605 352.537 460.591Z" fill="#F8F8C9"/>
<path opacity="0.5217" d="M352.053 460.591C352.053 467.305 346.61 472.718 339.896 472.718C333.212 472.718 327.769 467.305 327.769 460.591C327.769 453.877 333.212 448.464 339.896 448.464C346.61 448.433 352.023 453.847 352.053 460.591Z" fill="#F9F9C8"/>
<path opacity="0.5652" d="M351.569 460.59C351.569 467.032 346.337 472.234 339.895 472.234C333.484 472.234 328.252 467.032 328.252 460.59C328.252 454.149 333.484 448.947 339.926 448.947C346.337 448.917 351.569 454.118 351.569 460.59Z" fill="#F9F9C6"/>
<path opacity="0.6087" d="M351.086 460.591C351.086 466.76 346.065 471.75 339.896 471.75C333.726 471.75 328.736 466.76 328.736 460.56C328.736 454.391 333.757 449.371 339.926 449.371C346.096 449.401 351.086 454.391 351.086 460.591Z" fill="#FAFAC4"/>
<path opacity="0.6522" d="M350.602 460.591C350.602 466.518 345.794 471.297 339.896 471.297C333.999 471.297 329.221 466.518 329.19 460.591C329.19 454.663 333.999 449.885 339.896 449.885C345.824 449.855 350.602 454.663 350.602 460.591Z" fill="#FAFAC2"/>
<path opacity="0.6957" d="M350.148 460.56C350.148 466.216 345.551 470.782 339.926 470.782C334.301 470.782 329.704 466.216 329.704 460.56C329.704 454.905 334.301 450.338 339.926 450.338C345.551 450.338 350.118 454.935 350.148 460.56Z" fill="#FBFBC0"/>
<path opacity="0.7391" d="M349.664 460.56C349.664 465.944 345.309 470.299 339.926 470.299C334.573 470.299 330.188 465.944 330.188 460.56C330.188 455.177 334.573 450.822 339.926 450.822C345.279 450.822 349.664 455.177 349.664 460.56Z" fill="#FCFCBE"/>
<path opacity="0.7826" d="M349.18 460.56C349.18 465.671 345.037 469.815 339.896 469.815C334.785 469.815 330.642 465.671 330.642 460.56C330.642 455.449 334.785 451.306 339.896 451.306C345.037 451.306 349.18 455.449 349.18 460.56Z" fill="#FCFCBC"/>
<path opacity="0.8261" d="M348.696 460.56C348.696 465.399 344.764 469.331 339.895 469.331C335.057 469.331 331.125 465.399 331.125 460.53C331.125 455.691 335.057 451.729 339.926 451.729C344.764 451.79 348.696 455.722 348.696 460.56Z" fill="#FDFDBA"/>
<path opacity="0.8696" d="M348.212 460.56C348.212 465.157 344.493 468.877 339.896 468.877C335.329 468.877 331.609 465.157 331.579 460.56C331.579 455.963 335.299 452.244 339.896 452.244C344.493 452.244 348.212 455.994 348.212 460.56Z" fill="#FDFDB8"/>
<path opacity="0.913" d="M347.758 460.56C347.758 464.885 344.25 468.393 339.926 468.393C335.601 468.393 332.093 464.885 332.093 460.56C332.093 456.236 335.601 452.728 339.926 452.728C344.22 452.728 347.728 456.236 347.758 460.56Z" fill="#FEFEB6"/>
<path opacity="0.9565" d="M347.275 460.56C347.275 464.613 343.979 467.909 339.926 467.909C335.874 467.909 332.577 464.613 332.577 460.56C332.577 456.508 335.874 453.211 339.926 453.211C343.979 453.211 347.275 456.508 347.275 460.56Z" fill="#FEFEB4"/>
<path opacity="0.7" d="M346.791 460.56C346.791 464.341 343.706 467.425 339.926 467.425C336.145 467.425 333.061 464.341 333.061 460.56C333.061 456.78 336.145 453.695 339.926 453.695C343.706 453.695 346.76 456.78 346.791 460.56Z" fill="#FFFFB2"/>
</g>
<path d="M168.754 460.561C168.754 465.641 164.671 469.785 159.59 469.754C154.54 469.754 150.427 465.641 150.427 460.561C150.457 455.54 154.54 451.397 159.59 451.397C164.641 451.367 168.754 455.51 168.754 460.561Z" fill="#F2F2D0"/>
<path d="M163.643 455.873C162.948 460.228 159.167 463.615 154.571 463.615C154.359 463.615 154.087 463.524 153.814 463.555C154.843 465.793 157.081 467.335 159.712 467.335C163.28 467.365 166.184 464.462 166.214 460.893C166.214 458.807 165.155 457.022 163.643 455.873Z" fill="#D6A651"/>
<g opacity="0.7">
<path opacity="0.0434783" d="M176.98 460.591C176.98 470.208 169.177 477.95 159.56 477.95C149.973 477.95 142.171 470.208 142.171 460.56C142.171 450.913 149.973 443.171 159.56 443.171C169.177 443.201 176.98 450.943 176.98 460.591Z" fill="#F3F3DD"/>
<path opacity="0.0869565" d="M176.496 460.591C176.496 469.936 168.905 477.466 159.56 477.466C150.245 477.466 142.654 469.936 142.654 460.56C142.654 451.185 150.245 443.655 159.59 443.655C168.905 443.655 176.496 451.215 176.496 460.591Z" fill="#F3F3DB"/>
<path opacity="0.1304" d="M176.012 460.59C176.012 469.693 168.633 477.012 159.56 477.012C150.488 477.012 143.139 469.693 143.139 460.59C143.139 451.487 150.518 444.169 159.591 444.169C168.663 444.138 176.012 451.487 176.012 460.59Z" fill="#F4F4D9"/>
<path opacity="0.1739" d="M175.528 460.591C175.528 469.421 168.391 476.528 159.56 476.528C150.759 476.528 143.622 469.421 143.592 460.56C143.592 451.73 150.759 444.623 159.56 444.623C168.391 444.623 175.528 451.73 175.528 460.591Z" fill="#F4F4D7"/>
<path opacity="0.2174" d="M175.074 460.591C175.074 469.149 168.148 476.045 159.59 476.045C151.061 476.045 144.136 469.149 144.105 460.56C144.105 451.971 151.031 445.076 159.59 445.076C168.118 445.106 175.044 452.002 175.074 460.591Z" fill="#F5F5D5"/>
<path opacity="0.2609" d="M174.59 460.591C174.59 468.877 167.877 475.561 159.56 475.561C151.304 475.561 144.56 468.877 144.56 460.56C144.56 452.244 151.273 445.56 159.56 445.56C167.877 445.56 174.59 452.274 174.59 460.591Z" fill="#F5F5D3"/>
<path opacity="0.3043" d="M174.107 460.591C174.107 468.635 167.605 475.107 159.56 475.107C151.546 475.107 145.044 468.635 145.044 460.591C145.044 452.546 151.546 446.074 159.591 446.074C167.605 446.044 174.107 452.546 174.107 460.591Z" fill="#F6F6D1"/>
<path opacity="0.3478" d="M173.623 460.591C173.623 468.363 167.332 474.623 159.56 474.623C151.818 474.623 145.527 468.363 145.527 460.591C145.527 452.818 151.818 446.558 159.59 446.558C167.332 446.528 173.623 452.788 173.623 460.591Z" fill="#F7F7CF"/>
<path opacity="0.3913" d="M173.138 460.591C173.138 468.091 167.06 474.139 159.559 474.139C152.089 474.139 146.011 468.091 145.98 460.56C145.98 453.06 152.059 447.012 159.559 447.012C167.06 447.012 173.138 453.06 173.138 460.591Z" fill="#F7F7CD"/>
<path opacity="0.4348" d="M172.685 460.591C172.685 467.819 166.818 473.655 159.59 473.655C152.362 473.655 146.525 467.819 146.495 460.56C146.495 453.302 152.362 447.465 159.59 447.465C166.818 447.496 172.655 453.332 172.685 460.591Z" fill="#F8F8CB"/>
<path opacity="0.4783" d="M172.201 460.591C172.201 467.577 166.545 473.202 159.59 473.202C152.634 473.202 146.979 467.577 146.979 460.591C146.979 453.605 152.634 447.98 159.59 447.98C166.545 447.949 172.171 453.605 172.201 460.591Z" fill="#F8F8C9"/>
<path opacity="0.5217" d="M171.717 460.591C171.717 467.305 166.274 472.718 159.56 472.718C152.876 472.718 147.433 467.305 147.433 460.591C147.433 453.877 152.876 448.464 159.56 448.464C166.274 448.433 171.717 453.847 171.717 460.591Z" fill="#F9F9C8"/>
<path opacity="0.5652" d="M171.234 460.59C171.234 467.032 166.002 472.234 159.56 472.234C153.149 472.234 147.917 467.032 147.917 460.59C147.917 454.149 153.149 448.947 159.591 448.947C166.002 448.917 171.234 454.118 171.234 460.59Z" fill="#F9F9C6"/>
<path opacity="0.6087" d="M170.75 460.591C170.75 466.76 165.729 471.75 159.56 471.75C153.39 471.75 148.4 466.76 148.37 460.56C148.37 454.391 153.39 449.371 159.56 449.371C165.76 449.401 170.75 454.391 170.75 460.591Z" fill="#FAFAC4"/>
<path opacity="0.6522" d="M170.296 460.591C170.296 466.518 165.488 471.297 159.591 471.297C153.693 471.297 148.915 466.518 148.885 460.591C148.885 454.663 153.693 449.885 159.591 449.885C165.488 449.855 170.266 454.663 170.296 460.591Z" fill="#FAFAC2"/>
<path opacity="0.6957" d="M169.812 460.56C169.812 466.216 165.215 470.782 159.59 470.782C153.965 470.782 149.368 466.216 149.368 460.56C149.368 454.905 153.965 450.338 159.59 450.338C165.215 450.338 169.812 454.935 169.812 460.56Z" fill="#FBFBC0"/>
<path opacity="0.7391" d="M169.328 460.56C169.328 465.944 164.943 470.299 159.59 470.299C154.207 470.299 149.852 465.944 149.852 460.56C149.852 455.177 154.237 450.822 159.59 450.822C164.973 450.822 169.328 455.177 169.328 460.56Z" fill="#FCFCBE"/>
<path opacity="0.7826" d="M168.844 460.56C168.844 465.671 164.701 469.815 159.56 469.815C154.449 469.815 150.306 465.671 150.306 460.56C150.306 455.449 154.449 451.306 159.56 451.306C164.701 451.306 168.844 455.449 168.844 460.56Z" fill="#FCFCBC"/>
<path opacity="0.8261" d="M168.361 460.56C168.361 465.399 164.429 469.331 159.56 469.331C154.722 469.331 150.79 465.399 150.79 460.53C150.79 455.691 154.722 451.729 159.591 451.729C164.429 451.79 168.361 455.722 168.361 460.56Z" fill="#FDFDBA"/>
<path opacity="0.8696" d="M167.907 460.56C167.907 465.157 164.187 468.877 159.59 468.877C155.024 468.877 151.304 465.157 151.273 460.56C151.273 455.963 154.993 452.244 159.59 452.244C164.157 452.244 167.877 455.994 167.907 460.56Z" fill="#FDFDB8"/>
<path opacity="0.913" d="M167.423 460.56C167.423 464.885 163.915 468.393 159.591 468.393C155.266 468.393 151.758 464.885 151.758 460.56C151.758 456.236 155.266 452.728 159.591 452.728C163.915 452.728 167.423 456.236 167.423 460.56Z" fill="#FEFEB6"/>
<path opacity="0.9565" d="M166.939 460.56C166.939 464.613 163.643 467.909 159.59 467.909C155.538 467.909 152.241 464.613 152.241 460.56C152.241 456.508 155.538 453.211 159.59 453.211C163.643 453.211 166.939 456.508 166.939 460.56Z" fill="#FEFEB4"/>
<path opacity="0.7" d="M166.455 460.56C166.455 464.341 163.37 467.425 159.59 467.425C155.809 467.425 152.725 464.341 152.725 460.56C152.725 456.78 155.809 453.695 159.59 453.695C163.37 453.695 166.424 456.78 166.455 460.56Z" fill="#FFFFB2"/>
</g>
<path d="M423.305 410.479C423.305 415.53 419.192 419.642 414.112 419.673C409.061 419.673 404.948 415.53 404.948 410.479C404.948 405.398 409.061 401.285 414.112 401.285C419.223 401.255 423.305 405.398 423.305 410.479Z" fill="#F2F2D0"/>
<path d="M418.194 405.701C417.498 410.146 413.718 413.473 409.121 413.473C408.879 413.503 408.607 413.413 408.365 413.382C409.393 415.681 411.631 417.223 414.263 417.223C417.861 417.223 420.765 414.29 420.765 410.721C420.734 408.695 419.706 406.91 418.194 405.701Z" fill="#D6A651"/>
<path opacity="0.0434783" d="M431.532 410.479C431.562 420.096 423.76 427.868 414.142 427.868C404.525 427.868 396.753 420.066 396.753 410.479C396.753 400.801 404.556 393.059 414.112 393.089C423.729 393.059 431.532 400.801 431.532 410.479Z" fill="#F3F3DD"/>
<path opacity="0.0869565" d="M431.048 410.479C431.078 419.824 423.487 427.385 414.142 427.385C404.797 427.385 397.236 419.794 397.236 410.479C397.236 401.074 404.827 393.543 414.142 393.573C423.457 393.543 431.048 401.043 431.048 410.479Z" fill="#F3F3DB"/>
<path opacity="0.1304" d="M430.563 410.479C430.593 419.552 423.214 426.901 414.111 426.901C405.038 426.901 397.689 419.521 397.689 410.479C397.689 401.346 405.069 394.027 414.111 394.057C423.184 394.027 430.563 401.315 430.563 410.479Z" fill="#F4F4D9"/>
<path opacity="0.1739" d="M430.08 410.479C430.11 419.31 422.943 426.417 414.112 426.417C405.311 426.417 398.174 419.249 398.174 410.479C398.174 401.618 405.311 394.511 414.112 394.511C422.943 394.511 430.08 401.588 430.08 410.479Z" fill="#F4F4D7"/>
<path opacity="0.2174" d="M429.626 410.479C429.656 419.037 422.7 425.963 414.142 425.963C405.583 425.963 398.657 419.037 398.688 410.479C398.688 401.86 405.613 394.995 414.142 394.995C422.67 394.995 429.626 401.86 429.626 410.479Z" fill="#F5F5D5"/>
<path opacity="0.2609" d="M429.142 410.479C429.172 418.765 422.428 425.479 414.142 425.479C405.855 425.479 399.142 418.765 399.142 410.479C399.142 402.132 405.855 395.448 414.112 395.479C422.398 395.448 429.142 402.132 429.142 410.479Z" fill="#F5F5D3"/>
<path opacity="0.3043" d="M428.659 410.479C428.659 418.493 422.157 424.995 414.142 424.995C406.128 424.995 399.626 418.493 399.626 410.479C399.626 402.404 406.128 395.932 414.112 395.963C422.157 395.932 428.659 402.374 428.659 410.479Z" fill="#F6F6D1"/>
<path opacity="0.3478" d="M428.174 410.479C428.174 418.251 421.884 424.511 414.112 424.511C406.37 424.511 400.079 418.221 400.079 410.479C400.079 402.676 406.37 396.416 414.112 396.446C421.884 396.416 428.174 402.646 428.174 410.479Z" fill="#F7F7CF"/>
<path opacity="0.3913" d="M427.69 410.479C427.69 417.979 421.611 424.027 414.111 424.027C406.641 424.027 400.562 417.949 400.562 410.479C400.562 402.948 406.641 396.9 414.111 396.9C421.611 396.9 427.69 402.918 427.69 410.479Z" fill="#F7F7CD"/>
<path opacity="0.4348" d="M427.207 410.479C427.207 417.707 421.34 423.574 414.112 423.544C406.884 423.544 401.047 417.677 401.047 410.479C401.047 403.221 406.914 397.384 414.112 397.384C421.34 397.384 427.237 403.19 427.207 410.479Z" fill="#F8F8CB"/>
<path opacity="0.4783" d="M426.753 410.479C426.753 417.435 421.097 423.09 414.142 423.09C407.186 423.09 401.53 417.435 401.561 410.479C401.561 403.493 407.216 397.868 414.142 397.868C421.097 397.838 426.753 403.463 426.753 410.479Z" fill="#F8F8C9"/>
<path opacity="0.5217" d="M426.269 410.479C426.269 417.193 420.826 422.606 414.142 422.606C407.458 422.606 402.015 417.163 402.015 410.479C402.015 403.735 407.458 398.321 414.112 398.352C420.826 398.321 426.269 403.705 426.269 410.479Z" fill="#F9F9C8"/>
<path opacity="0.5652" d="M425.786 410.479C425.786 416.921 420.584 422.122 414.112 422.122C407.701 422.122 402.469 416.89 402.469 410.479C402.439 404.007 407.701 398.805 414.082 398.836C420.554 398.805 425.786 403.977 425.786 410.479Z" fill="#F9F9C6"/>
<path opacity="0.6087" d="M425.301 410.479C425.301 416.648 420.311 421.638 414.112 421.638C407.972 421.638 402.952 416.648 402.952 410.479C402.952 404.279 407.972 399.289 414.112 399.289C420.311 399.289 425.301 404.249 425.301 410.479Z" fill="#FAFAC4"/>
<path opacity="0.6522" d="M424.817 410.479C424.817 416.376 420.039 421.185 414.111 421.154C408.214 421.154 403.436 416.376 403.436 410.479C403.436 404.551 408.214 399.773 414.111 399.773C420.039 399.773 424.847 404.521 424.817 410.479Z" fill="#FAFAC2"/>
<path opacity="0.6957" d="M424.364 410.479C424.364 416.104 419.797 420.701 414.142 420.671C408.517 420.671 403.95 416.104 403.95 410.479C403.95 404.824 408.517 400.257 414.142 400.257C419.767 400.227 424.364 404.793 424.364 410.479Z" fill="#FBFBC0"/>
<path opacity="0.7391" d="M423.88 410.479C423.88 415.862 419.525 420.217 414.141 420.217C408.789 420.217 404.434 415.862 404.434 410.479C404.434 405.096 408.789 400.741 414.141 400.741C419.494 400.711 423.88 405.035 423.88 410.479Z" fill="#FCFCBE"/>
<path opacity="0.7826" d="M423.396 410.479C423.396 415.59 419.253 419.733 414.142 419.733C409.061 419.733 404.918 415.59 404.918 410.479C404.918 405.368 409.061 401.195 414.142 401.225C419.253 401.195 423.396 405.308 423.396 410.479Z" fill="#FCFCBC"/>
<path opacity="0.8261" d="M422.913 410.479C422.913 415.318 418.981 419.25 414.112 419.25C409.273 419.25 405.372 415.318 405.342 410.479C405.342 405.61 409.273 401.679 414.082 401.679C418.981 401.679 422.913 405.58 422.913 410.479Z" fill="#FDFDBA"/>
<path opacity="0.8696" d="M422.428 410.479C422.428 415.045 418.709 418.765 414.112 418.765C409.545 418.765 405.825 415.045 405.825 410.479C405.825 405.882 409.545 402.162 414.112 402.162C418.709 402.162 422.459 405.852 422.428 410.479Z" fill="#FDFDB8"/>
<path opacity="0.913" d="M421.944 410.479C421.944 414.804 418.436 418.312 414.111 418.282C409.817 418.282 406.309 414.774 406.309 410.479C406.309 406.154 409.817 402.646 414.111 402.646C418.436 402.616 421.974 406.124 421.944 410.479Z" fill="#FEFEB6"/>
<path opacity="0.9565" d="M421.491 410.479C421.491 414.531 418.194 417.827 414.142 417.797C410.12 417.797 406.823 414.501 406.823 410.479C406.823 406.426 410.12 403.13 414.142 403.13C418.194 403.099 421.491 406.366 421.491 410.479Z" fill="#FEFEB4"/>
<path d="M421.007 410.479C421.007 414.259 417.922 417.344 414.142 417.344C410.392 417.344 407.277 414.259 407.307 410.479C407.277 406.699 410.392 403.614 414.142 403.614C417.922 403.584 421.007 406.638 421.007 410.479Z" fill="#FFFFB2"/>
<path d="M95.7781 411.144C95.7781 416.225 91.6651 420.338 86.5844 420.338C81.5339 420.338 77.4511 416.194 77.4209 411.144C77.4209 406.093 81.5339 401.98 86.5844 401.98C91.6651 401.98 95.7781 406.093 95.7781 411.144Z" fill="#F2F2D0"/>
<path d="M90.6667 406.426C89.9409 410.841 86.1605 414.198 81.5637 414.198C81.3217 414.198 81.0496 414.107 80.8076 414.107C81.8359 416.376 84.0738 417.918 86.7049 417.918C90.2735 417.918 93.2071 415.015 93.2071 411.446C93.2071 409.39 92.1788 407.605 90.6667 406.426Z" fill="#D6A651"/>
<path opacity="0.0434783" d="M103.974 411.144C103.974 420.761 96.1716 428.533 86.5848 428.533C76.9979 428.533 69.1953 420.761 69.1953 411.144C69.1953 401.496 76.9979 393.754 86.5848 393.754C96.2019 393.785 103.974 401.527 103.974 411.144Z" fill="#F3F3DD"/>
<path opacity="0.0869565" d="M103.52 411.144C103.52 420.519 95.9292 428.049 86.5843 428.049C77.2696 428.049 69.6787 420.489 69.6787 411.144C69.6787 401.769 77.2696 394.238 86.5843 394.238C95.9292 394.238 103.52 401.769 103.52 411.144Z" fill="#F3F3DB"/>
<path opacity="0.1304" d="M103.037 411.144C103.037 420.247 95.6576 427.566 86.5848 427.566C77.5423 427.566 70.1631 420.217 70.1631 411.144C70.1631 402.041 77.5423 394.722 86.5848 394.722C95.6878 394.722 103.037 402.041 103.037 411.144Z" fill="#F4F4D9"/>
<path opacity="0.1739" d="M102.552 411.144C102.552 419.975 95.3849 427.112 86.5843 427.112C77.7837 427.112 70.6465 419.975 70.6465 411.144C70.6465 402.313 77.7837 395.206 86.5843 395.206C95.4151 395.206 102.552 402.313 102.552 411.144Z" fill="#F4F4D7"/>
<path opacity="0.2174" d="M102.068 411.144C102.068 419.702 95.1122 426.628 86.5838 426.628C78.0554 426.628 71.1299 419.702 71.0996 411.144C71.0996 402.585 78.0251 395.66 86.5838 395.66C95.1424 395.69 102.068 402.585 102.068 411.144Z" fill="#F5F5D5"/>
<path opacity="0.2609" d="M101.585 411.144C101.585 419.461 94.8708 426.144 86.5843 426.144C78.3281 426.144 71.584 419.43 71.584 411.144C71.584 402.827 78.2978 396.144 86.5843 396.144C94.8708 396.174 101.585 402.857 101.585 411.144Z" fill="#F5F5D3"/>
<path opacity="0.3043" d="M101.101 411.144C101.101 419.188 94.599 425.66 86.5545 425.66C78.5705 425.66 72.0381 419.158 72.0381 411.144C72.0381 403.099 78.5402 396.627 86.5545 396.627C94.6293 396.627 101.101 403.099 101.101 411.144Z" fill="#F6F6D1"/>
<path opacity="0.3478" d="M100.647 411.144C100.647 418.916 94.3566 425.207 86.5843 425.207C78.8422 425.207 72.5518 418.916 72.5518 411.144C72.5518 403.372 78.8422 397.111 86.5843 397.111C94.3566 397.111 100.647 403.372 100.647 411.144Z" fill="#F7F7CF"/>
<path opacity="0.3913" d="M100.164 411.144C100.164 418.644 94.0849 424.723 86.5848 424.723C79.1149 424.723 73.0361 418.644 73.0361 411.144C73.0361 403.644 79.1149 397.595 86.5848 397.595C94.0849 397.595 100.164 403.644 100.164 411.144Z" fill="#F7F7CD"/>
<path opacity="0.4348" d="M99.6793 411.144C99.6793 418.372 93.8123 424.239 86.5843 424.239C79.3866 424.239 73.5195 418.372 73.5195 411.144C73.5195 403.916 79.3866 398.049 86.6145 398.049C93.8123 398.079 99.6793 403.916 99.6793 411.144Z" fill="#F8F8CB"/>
<path opacity="0.4783" d="M99.1949 411.144C99.1949 418.13 93.5396 423.755 86.5838 423.755C79.628 423.755 74.0029 418.13 73.9727 411.144C73.9727 404.158 79.628 398.533 86.5838 398.533C93.5698 398.563 99.1949 404.188 99.1949 411.144Z" fill="#F8F8C9"/>
<path opacity="0.5217" d="M98.7116 411.144C98.7116 417.858 93.2679 423.271 86.5843 423.271C79.9007 423.271 74.4873 417.858 74.457 411.144C74.457 404.43 79.9007 399.017 86.5843 399.017C93.2982 399.017 98.7116 404.43 98.7116 411.144Z" fill="#F9F9C8"/>
<path opacity="0.5652" d="M98.2584 411.144C98.2584 417.586 93.0264 422.818 86.5848 422.818C80.1734 422.818 74.9414 417.616 74.9414 411.144C74.9414 404.702 80.1734 399.5 86.5848 399.5C93.0264 399.5 98.2584 404.702 98.2584 411.144Z" fill="#F9F9C6"/>
<path opacity="0.6087" d="M97.774 411.144C97.774 417.313 92.7538 422.334 86.5843 422.334C80.4451 422.334 75.4248 417.344 75.4248 411.144C75.4248 404.974 80.4451 399.984 86.5843 399.984C92.7538 399.984 97.774 404.974 97.774 411.144Z" fill="#FAFAC4"/>
<path opacity="0.6522" d="M97.2907 411.144C97.2907 417.071 92.4821 421.85 86.5848 421.85C80.6875 421.85 75.9092 417.071 75.9092 411.144C75.9092 405.247 80.6875 400.438 86.5848 400.438C92.5123 400.468 97.2907 405.247 97.2907 411.144Z" fill="#FAFAC2"/>
<path opacity="0.6957" d="M96.8063 411.144C96.8063 416.799 92.2397 421.366 86.5843 421.366C80.9592 421.366 76.3926 416.799 76.3926 411.144C76.3926 405.489 80.9592 400.922 86.6146 400.922C92.2397 400.922 96.8063 405.519 96.8063 411.144Z" fill="#FBFBC0"/>
<path opacity="0.7391" d="M96.3219 411.144C96.3219 416.527 91.967 420.882 86.5838 420.882C81.2309 420.882 76.876 416.527 76.876 411.144C76.876 405.761 81.2309 401.406 86.6141 401.406C91.967 401.406 96.3219 405.761 96.3219 411.144Z" fill="#FCFCBE"/>
<path opacity="0.7826" d="M95.8385 411.144C95.8385 416.255 91.6953 420.428 86.554 420.428C81.4733 420.428 77.33 416.285 77.2998 411.144C77.2998 406.033 81.443 401.89 86.554 401.89C91.6953 401.89 95.8385 406.033 95.8385 411.144Z" fill="#FCFCBC"/>
<path opacity="0.8261" d="M95.3854 411.144C95.3854 415.983 91.4538 419.944 86.5848 419.944C81.746 419.944 77.8145 416.013 77.8145 411.144C77.8145 406.305 81.746 402.374 86.5848 402.374C91.4538 402.374 95.3854 406.305 95.3854 411.144Z" fill="#FDFDBA"/>
<path opacity="0.8696" d="M94.901 411.144C94.901 415.741 91.1812 419.461 86.5843 419.461C82.0177 419.461 78.2979 415.741 78.2979 411.144C78.2979 406.577 82.0177 402.827 86.5843 402.827C91.1812 402.857 94.901 406.577 94.901 411.144Z" fill="#FDFDB8"/>
<path opacity="0.913" d="M94.4176 411.144C94.4176 415.469 90.9095 418.977 86.5848 418.977C82.2904 418.977 78.7822 415.469 78.7822 411.144C78.7822 406.819 82.2904 403.311 86.615 403.311C90.9095 403.311 94.4176 406.849 94.4176 411.144Z" fill="#FEFEB6"/>
<path opacity="0.9565" d="M93.9333 411.144C93.9333 415.196 90.6368 418.493 86.5843 418.493C82.5621 418.493 79.2656 415.196 79.2656 411.144C79.2656 407.091 82.5621 403.795 86.6146 403.795C90.6368 403.795 93.9333 407.122 93.9333 411.144Z" fill="#FEFEB4"/>
<path d="M93.4489 411.144C93.4489 414.924 90.3641 418.039 86.5838 418.039C82.8035 418.039 79.749 414.954 79.749 411.144C79.749 407.364 82.8338 404.279 86.6141 404.279C90.3944 404.279 93.4489 407.364 93.4489 411.144Z" fill="#FFFFB2"/>
<defs>
<linearGradient id="paint0_linear" x1="250.002" y1="492.192" x2="250.002" y2="0.444909" gradientUnits="userSpaceOnUse">
<stop stop-color="#EB9B2E"/>
<stop offset="0.1969" stop-color="#F1A437"/>
<stop offset="0.502" stop-color="#FFB94F"/>
<stop offset="1" stop-color="#FFE373"/>
</linearGradient>
<linearGradient id="paint1_linear" x1="250.001" y1="477.071" x2="250.001" y2="15.566" gradientUnits="userSpaceOnUse">
<stop stop-color="#FFE373"/>
<stop offset="0.498" stop-color="#FFB94F"/>
<stop offset="0.8031" stop-color="#F1A437"/>
<stop offset="1" stop-color="#EB9B2E"/>
</linearGradient>
</defs>
</svg>
